<svg viewBox="0 0 334 334" xmlns="http://www.w3.org/2000/svg" fill-rule="evenodd" clip-rule="evenodd" stroke-linejoin="round" stroke-miterlimit="2"><circle cx="167" cy="167" r="167" fill="#bfecee"/><path d="M101.061 140.611v167.065l65.948-35.173V140.611h-65.948zM167.01 140.611v131.892l65.947 35.173V140.61H167.01z" fill="#fff" fill-rule="nonzero"/><path d="M167.01 188.978h-39.57v104.629l39.57-21.104v-83.525zM232.957 188.978H193.39v97.594l39.568 21.104V188.978z" fill="#a8abb3" fill-rule="nonzero"/><path d="M61.492 131.814c0 58.276 47.241 105.517 105.517 105.517 58.276 0 105.517-47.24 105.517-105.517 0-58.276-47.24-105.517-105.517-105.517-58.276 0-105.517 47.24-105.517 105.517z" fill="#fff" fill-rule="nonzero"/><path d="M272.526 131.814c0-21.262-6.313-41.042-17.133-57.604-16.566-10.82-36.342-17.133-57.608-17.133-58.276 0-105.517 47.241-105.517 105.517 0 21.262 6.313 41.042 17.133 57.608 16.567 10.82 36.342 17.129 57.608 17.129 58.276 0 105.517-47.24 105.517-105.517z" fill="#a8abb3" fill-rule="nonzero"/><path d="M87.871 131.814c0 43.706 35.428 79.138 79.138 79.138 43.706 0 79.138-35.432 79.138-79.138 0-43.702-35.432-79.138-79.138-79.138-43.71 0-79.138 35.436-79.138 79.138z" fill="#fff" fill-rule="nonzero"/><path d="M197.785 96.646c16.966 0 32.649 5.39 45.535 14.478-9.11-33.651-39.78-58.448-76.31-58.448-43.711 0-79.139 35.436-79.139 79.138 0 26.74 13.3 50.336 33.603 64.664-1.785-6.608-2.827-13.519-2.827-20.694 0-43.702 35.432-79.138 79.138-79.138z" fill="#fff" fill-rule="nonzero"/><path d="M246.147 131.814c0-7.17-1.042-14.082-2.827-20.69-12.886-9.088-28.569-14.478-45.535-14.478-43.706 0-79.138 35.436-79.138 79.138 0 7.175 1.042 14.086 2.827 20.694 12.887 9.088 28.569 14.474 45.535 14.474 43.706 0 79.138-35.432 79.138-79.138z" fill="#a8abb3" fill-rule="nonzero"/><path d="M250.544 263.737c9.72 0 17.586 7.86 17.586 17.581 0-9.72 7.865-17.581 17.586-17.586-9.72 0-17.586-7.865-17.586-17.586 0 9.72-7.866 17.586-17.586 17.59zM272.526 188.987c9.721 0 17.587 7.865 17.587 17.586.004-9.721 7.87-17.586 17.586-17.59-9.717 0-17.582-7.862-17.582-17.583-.004 9.721-7.87 17.582-17.59 17.587zM250.544 43.887c9.72 0 17.586 7.861 17.586 17.582 0-9.72 7.865-17.582 17.586-17.586-9.72 0-17.586-7.865-17.586-17.586 0 9.72-7.866 17.586-17.586 17.59zM26.298 188.987c9.72 0 17.586 7.865 17.586 17.586 0-9.721 7.865-17.586 17.586-17.59-9.72 0-17.586-7.862-17.586-17.583 0 9.721-7.865 17.582-17.586 17.587zM48.307 290.116c9.72 0 17.582 7.865 17.582 17.586.004-9.72 7.87-17.586 17.59-17.586-9.72 0-17.586-7.865-17.586-17.586-.004 9.72-7.865 17.586-17.586 17.586zM167 78.387l15.714 31.84 35.137 5.104-25.425 24.784 6.001 34.996L167 158.59l-31.43 16.522 6.005-34.996-25.43-24.784 35.142-5.104L167 78.387z" fill="#fff" fill-rule="nonzero"/><path d="M65.893 311a3.299 3.299 0 01-3.298-3.297c0-7.88-6.41-14.29-14.289-14.29a3.299 3.299 0 01-.004-6.594c7.883-.004 14.293-6.414 14.293-14.29a3.299 3.299 0 016.595 0c0 7.88 6.41 14.286 14.29 14.286a3.299 3.299 0 010 6.594c-7.88.005-14.29 6.415-14.29 14.294A3.299 3.299 0 0165.893 311zm101.116-34.762l-64.396 34.349c-.488.26-1.02.387-1.553.387a3.341 3.341 0 01-1.696-.467 3.301 3.301 0 01-1.601-2.83v-91.984c-24.15-19.969-39.569-50.156-39.569-83.879C58.194 71.814 107.01 23 167.01 23s108.814 48.814 108.814 108.814c0 33.72-15.416 63.906-39.569 83.878v91.984c0 1.161-.607 2.233-1.6 2.831a3.338 3.338 0 01-1.697.467 3.288 3.288 0 01-1.552-.387l-64.396-34.35zm62.65-55.5v81.442l-59.353-31.66v-29.94c22.048-.66 42.468-7.91 59.353-19.842zm-125.301 0c16.885 11.932 37.305 19.182 59.353 19.841v29.942l-59.353 31.66v-81.443zm-44.805 69.378a21.042 21.042 0 016.34 6.331 21.029 21.029 0 016.335-6.33 21.042 21.042 0 01-6.335-6.336 21.056 21.056 0 01-6.34 6.335zm208.577-5.5a3.299 3.299 0 01-3.298-3.298c0-7.878-6.41-14.288-14.289-14.288a3.299 3.299 0 010-6.595c7.878 0 14.29-6.41 14.29-14.289a3.299 3.299 0 016.594 0c0 7.88 6.41 14.29 14.288 14.29a3.299 3.299 0 010 6.594c-7.878 0-14.288 6.41-14.288 14.288a3.299 3.299 0 01-3.297 3.298zm-6.337-20.883a21.034 21.034 0 016.337 6.335 21.078 21.078 0 016.335-6.335 21.078 21.078 0 01-6.335-6.335 21.034 21.034 0 01-6.337 6.335zM167.01 29.595c-56.369 0-102.22 45.855-102.22 102.22 0 56.363 45.851 102.219 102.22 102.219 56.364 0 102.22-45.856 102.22-102.22s-45.856-102.22-102.22-102.22zm0 184.655c-45.456 0-82.436-36.98-82.436-82.436 0-45.455 36.98-82.435 82.436-82.435 45.455 0 82.435 36.98 82.435 82.435 0 45.456-36.98 82.436-82.435 82.436zm123.103-4.384a3.299 3.299 0 01-3.297-3.297c0-7.879-6.406-14.29-14.285-14.29a3.299 3.299 0 010-6.594c7.875 0 14.285-6.41 14.289-14.288a3.298 3.298 0 016.595 0c0 7.878 6.41 14.288 14.289 14.288a3.299 3.299 0 010 6.595c-7.88 0-14.29 6.41-14.294 14.289a3.299 3.299 0 01-3.297 3.297zm-246.228 0a3.299 3.299 0 01-3.297-3.297c0-7.879-6.41-14.29-14.29-14.29a3.299 3.299 0 010-6.594c7.88 0 14.29-6.41 14.29-14.288a3.298 3.298 0 016.594 0c0 7.878 6.41 14.288 14.288 14.288a3.299 3.299 0 010 6.595c-7.878 0-14.288 6.41-14.288 14.289a3.299 3.299 0 01-3.297 3.297zM167.009 55.974c-41.82 0-75.84 34.02-75.84 75.84s34.02 75.84 75.84 75.84c41.815 0 75.84-34.02 75.84-75.84s-34.025-75.84-75.84-75.84zM283.78 188.982a21.09 21.09 0 016.335 6.336 20.995 20.995 0 016.336-6.336 20.995 20.995 0 01-6.336-6.335 21.09 21.09 0 01-6.335 6.335zm-246.232 0a21.076 21.076 0 016.335 6.332 21.039 21.039 0 016.33-6.332 21.039 21.039 0 01-6.33-6.33 21.076 21.076 0 01-6.335 6.33zm98.02-10.573a3.275 3.275 0 01-1.939-.633 3.292 3.292 0 01-1.31-3.223l5.711-33.29-24.185-23.57a3.296 3.296 0 011.824-5.624l33.427-4.862 14.944-30.28c1.108-2.25 4.806-2.25 5.914 0l14.948 30.28 33.423 4.862a3.295 3.295 0 012.659 2.248 3.289 3.289 0 01-.835 3.376l-24.185 23.57 5.71 33.29a3.293 3.293 0 01-1.31 3.223 3.278 3.278 0 01-3.473.255L167 162.313l-29.896 15.718c-.48.25-1.008.378-1.535.378zm-12.336-60.778l20.64 20.123c.78.757 1.131 1.85.95 2.92l-4.875 28.41 25.518-13.419a3.294 3.294 0 013.068 0l25.513 13.42-4.876-28.411a3.31 3.31 0 01.95-2.92l20.642-20.123-28.525-4.146a3.279 3.279 0 01-2.479-1.802L167 85.835l-12.759 25.848a3.278 3.278 0 01-2.484 1.802l-28.524 4.146zm-87.97 23.877a3.295 3.295 0 01-3.294-3.139 140.656 140.656 0 01-.154-6.555c0-23.05 5.905-45.812 17.076-65.816a3.303 3.303 0 014.484-1.274 3.298 3.298 0 011.272 4.488C44.024 88.236 38.41 109.885 38.41 131.814c0 2.097.048 4.177.145 6.24a3.292 3.292 0 01-3.135 3.45c-.052.004-.105.004-.158.004zM268.13 64.767a3.299 3.299 0 01-3.298-3.298c0-7.877-6.41-14.288-14.289-14.288a3.299 3.299 0 010-6.594c7.878 0 14.29-6.41 14.29-14.29a3.299 3.299 0 016.594 0c0 7.88 6.41 14.29 14.288 14.29a3.299 3.299 0 010 6.594c-7.878 0-14.288 6.41-14.288 14.288a3.299 3.299 0 01-3.297 3.298zM61.447 56.018c-.69 0-1.38-.215-1.973-.664a3.29 3.29 0 01-.664-4.611 135.63 135.63 0 019.457-11.274 3.302 3.302 0 014.66-.153 3.302 3.302 0 01.153 4.664 126.72 126.72 0 00-8.99 10.72 3.308 3.308 0 01-2.643 1.318zm200.346-12.134a21.022 21.022 0 016.337 6.335 21.066 21.066 0 016.335-6.335 21.078 21.078 0 01-6.335-6.335 21.034 21.034 0 01-6.337 6.335z" fill="#242d40"/></svg>