<svg viewBox="0 0 334 334" xmlns="http://www.w3.org/2000/svg" fill-rule="evenodd" clip-rule="evenodd" stroke-linejoin="round" stroke-miterlimit="2"><circle cx="167" cy="167" r="167" fill="#bfecee"/><path d="M307.697 167.01c0 77.707-62.99 140.702-140.703 140.702-77.703 0-140.702-62.995-140.702-140.703 0-77.712 63-140.703 140.702-140.703 77.712 0 140.703 62.991 140.703 140.703z" fill="#fff" fill-rule="nonzero"/><path d="M221.874 66.708c21.678 11.895 39.079 30.618 49.319 53.271a113.88 113.88 0 00-47.03-10.126c-63.135 0-114.32 51.185-114.32 114.321 0 16.765 3.64 32.682 10.125 47.025-22.654-10.242-41.382-27.646-53.276-49.323 2.48 22.9 10.466 44.151 22.594 62.417 22.272 14.783 48.979 23.419 77.708 23.419 77.713 0 140.703-62.996 140.703-140.703 0-28.734-8.627-55.442-23.414-77.712-18.26-12.123-39.508-20.11-62.41-22.59zm-43.888 100.301c0 6.068-4.92 10.992-10.992 10.992-6.063 0-10.992-4.924-10.992-10.992 0-6.072 4.929-10.992 10.992-10.992 6.072 0 10.992 4.92 10.992 10.992z" fill="#a8abb3" fill-rule="nonzero"/><path d="M79.06 298.918a8.794 8.794 0 11-8.795-8.795 8.792 8.792 0 018.795 8.795zm224.24-21.99a8.795 8.795 0 11-17.585 0 8.795 8.795 0 0117.584 0zm-259.42-4.396a8.791 8.791 0 01-8.794 8.794 8.795 8.795 0 118.793-8.794zM307.696 65.88a8.795 8.795 0 11-8.794-8.794 8.791 8.791 0 018.794 8.794zM57.074 48.29a8.794 8.794 0 11-8.793-8.794 8.792 8.792 0 018.793 8.794zm224.241-13.19a8.795 8.795 0 11-17.587-.002 8.795 8.795 0 0117.587.001z" fill="#fff" fill-rule="nonzero"/><path d="M166.999 311.005c-79.401 0-144-64.596-144-144 0-79.405 64.599-144.001 144-144.001 79.405 0 144 64.596 144 144.001 0 79.404-64.595 144-144 144zm-96.729 0c-6.666 0-12.092-5.422-12.092-12.091 0-6.67 5.426-12.092 12.092-12.092 6.67 0 12.092 5.422 12.092 12.092 0 6.67-5.422 12.091-12.092 12.091zM167 29.6c-75.765 0-137.405 61.642-137.405 137.406 0 75.763 61.64 137.405 137.405 137.405 75.768 0 137.404-61.642 137.404-137.405C304.403 91.241 242.767 29.6 167 29.6zM70.27 293.417a5.505 5.505 0 00-5.496 5.497 5.505 5.505 0 005.496 5.496 5.501 5.501 0 005.496-5.496 5.501 5.501 0 00-5.496-5.497zm224.236-4.396c-6.665 0-12.091-5.422-12.091-12.093 0-6.67 5.426-12.09 12.09-12.09 6.671 0 12.092 5.42 12.092 12.09s-5.42 12.093-12.091 12.093zM35.09 284.623c-6.666 0-12.091-5.422-12.091-12.09 0-6.671 5.425-12.093 12.09-12.093 6.671 0 12.092 5.422 12.092 12.092 0 6.67-5.42 12.091-12.091 12.091zm131.909 0c-64.855 0-117.619-52.763-117.619-117.618 0-64.856 52.764-117.62 117.619-117.62 64.854 0 117.618 52.764 117.618 117.62 0 64.855-52.764 117.618-117.618 117.618zm127.507-13.19a5.503 5.503 0 00-5.496 5.495 5.504 5.504 0 005.496 5.497 5.501 5.501 0 005.496-5.497 5.5 5.5 0 00-5.496-5.495zM35.09 267.035a5.504 5.504 0 00-5.496 5.497 5.504 5.504 0 005.496 5.496 5.501 5.501 0 005.496-5.496 5.501 5.501 0 00-5.496-5.497zM166.999 55.981c-61.215 0-111.023 49.805-111.023 111.024 0 61.218 49.808 111.023 111.023 111.023 61.219 0 111.023-49.805 111.023-111.023 0-61.22-49.804-111.024-111.023-111.024zm-.005 215.447a3.299 3.299 0 01-3.297-3.297V254.94a3.299 3.299 0 016.595 0v13.19a3.299 3.299 0 01-3.298 3.298zm-46.04-24.38h-.044c-2.067-1.232-4.749-.485-5.975 1.625-1.236 2.068-.489 4.794 1.622 5.98.66.392 1.45.616 2.155.616 1.542 0 3.033-.792 3.825-2.198 1.23-2.11.483-4.797-1.583-6.024zm92.248-.09h.044c-2.11 1.188-2.854 3.915-1.627 5.98a4.427 4.427 0 003.825 2.199c.748 0 1.495-.175 2.2-.57a4.388 4.388 0 001.582-6.025 4.383 4.383 0 00-6.024-1.583zm-61.87-142.903l-.686-5.52 16.348 6.916-14.158 10.707-.684-5.502c-25.322 6.654-43.413 29.907-43.413 56.35 0 32.123 26.14 58.258 58.26 58.258 8.508 0 16.703-1.79 24.358-5.32a3.296 3.296 0 112.766 5.984c-8.53 3.94-17.653 5.932-27.124 5.932-35.756 0-64.855-29.095-64.855-64.855 0-29.729 20.552-55.84 49.188-62.95zM81.073 211.739c-2.11 1.183-2.814 3.909-1.583 5.98.792 1.407 2.291 2.198 3.826 2.198.747 0 1.495-.175 2.198-.576 2.067-1.226 2.814-3.909 1.588-6.02a4.397 4.397 0 00-6.029-1.582zm171.922-.175c-2.107-1.232-4.793-.528-5.976 1.583a4.388 4.388 0 001.578 6.023 4.438 4.438 0 002.199.572c1.543 0 2.99-.797 3.825-2.199 1.192-2.11.484-4.797-1.626-5.98zm-78.952-56.99l47.706-51.37a3.304 3.304 0 014.661-.17 3.308 3.308 0 01.171 4.665l-47.705 51.367a14.206 14.206 0 012.413 7.94c0 3.257-1.096 6.264-2.939 8.67l30.174 36.89a3.29 3.29 0 01-.467 4.638 3.27 3.27 0 01-2.084.748 3.278 3.278 0 01-2.55-1.209l-30.173-36.889a14.215 14.215 0 01-6.251 1.44c-7.88 0-14.29-6.41-14.29-14.289 0-7.88 6.41-14.29 14.29-14.29 2.559 0 4.964.676 7.044 1.859zm-7.044 4.736c-4.24 0-7.695 3.452-7.695 7.695 0 4.242 3.456 7.694 7.695 7.694 4.243 0 7.695-3.452 7.695-7.694 0-4.243-3.452-7.695-7.695-7.695zm-87.94 10.993H65.87a3.299 3.299 0 010-6.596h13.19a3.299 3.299 0 010 6.596zm189.06 0h-13.19a3.299 3.299 0 010-6.596h13.19a3.296 3.296 0 013.299 3.298 3.296 3.296 0 01-3.298 3.298zM80.898 122.657a4.45 4.45 0 002.2.571 4.48 4.48 0 003.825-2.198 4.441 4.441 0 00-1.628-6.023 4.434 4.434 0 00-6.023 1.626 4.444 4.444 0 001.626 6.024zm169.679.044c.791 0 1.539-.176 2.242-.616 2.111-1.187 2.82-3.913 1.583-5.98a4.392 4.392 0 00-6.023-1.587c-2.11 1.191-2.81 3.918-1.583 6.029.835 1.362 2.286 2.154 3.781 2.154zM118.408 87.745c.747 0 1.49-.175 2.199-.615 2.105-1.192 2.809-3.919 1.577-5.98a4.39 4.39 0 00-6.023-1.584c-2.066 1.188-2.77 3.914-1.579 5.98a4.417 4.417 0 003.826 2.199zm94.486-.884c.703.4 1.451.571 2.199.571 1.495 0 2.993-.786 3.78-2.198 1.236-2.106.49-4.793-1.582-6.019-2.11-1.187-4.837-.483-6.024 1.622-1.231 2.116-.483 4.797 1.627 6.024zm-45.9-4.494a3.299 3.299 0 01-3.297-3.298V65.88a3.299 3.299 0 016.595 0v13.19a3.299 3.299 0 01-3.298 3.298zm131.91-4.396c-6.667 0-12.093-5.422-12.093-12.092 0-6.67 5.426-12.092 12.092-12.092 6.67 0 12.091 5.422 12.091 12.092 0 6.67-5.42 12.092-12.09 12.092zm0-17.588a5.505 5.505 0 00-5.498 5.496 5.505 5.505 0 005.497 5.496 5.501 5.501 0 005.496-5.496 5.501 5.501 0 00-5.496-5.496zm-250.623 0c-6.666 0-12.092-5.421-12.092-12.092 0-6.67 5.426-12.092 12.092-12.092 6.67 0 12.091 5.422 12.091 12.092 0 6.67-5.42 12.092-12.091 12.092zm0-17.589a5.504 5.504 0 00-5.496 5.497 5.503 5.503 0 005.496 5.496 5.5 5.5 0 005.496-5.496 5.501 5.501 0 00-5.496-5.497zm224.24 4.394c-6.666 0-12.092-5.422-12.092-12.092 0-6.67 5.426-12.092 12.092-12.092 6.67 0 12.092 5.422 12.092 12.092 0 6.67-5.421 12.092-12.092 12.092zm0-17.589a5.505 5.505 0 00-5.496 5.497 5.505 5.505 0 005.496 5.496 5.501 5.501 0 005.496-5.496 5.501 5.501 0 00-5.496-5.497z" fill="#242d40" fill-rule="nonzero"/></svg>