<svg viewBox="0 0 334 334" xmlns="http://www.w3.org/2000/svg" fill-rule="evenodd" clip-rule="evenodd" stroke-linejoin="round" stroke-miterlimit="2">
  <circle cx="167" cy="167" r="167" fill="#bfecee"/>
  <path d="M29.64086326 264.97105001c-7.84939685 0-14.209625-6.36136492-14.209625-14.209625h284.1925c2.614571 0 4.73578382-2.11666574 4.73578382-4.73692059v-9.46815733H15.43123826v-33.16071767h265.24595441c7.84826008 0 14.209625-6.36136492 14.209625-14.209625V66.04539417h9.47270441c7.84939685 0 14.209625 6.35681784 14.209625 14.209625v170.50640584c0 7.84826008-6.36022815 14.209625-14.209625 14.209625h-71.048125v28.41925H100.68898826v-14.209625h113.677c2.614571 0 4.73578382-2.11666574 4.73578382-4.73692059v-9.47270441H29.64086326z" fill="#a8abb3" fill-rule="nonzero"/>
  <path d="M219.10177208 264.97105001H100.68898826v14.209625h113.677c2.614571 0 4.73578382-2.11666574 4.73578382-4.73692059v-9.47270441zm80.52196618-14.209625h-284.1925v-14.209625h288.92828382v9.47270441c0 2.62025485-2.12121282 4.73692059-4.73578382 4.73692059zm-18.94654559-47.36579559H15.43123826V80.25501917c0-7.85280716 6.36022815-14.209625 14.209625-14.209625h265.24595441v123.14061025c0 7.84826008-6.36136492 14.209625-14.209625 14.209625z" fill="#fff" fill-rule="nonzero"/>
  <path d="M97.13658201 268.52345626H29.64086326c-9.79554709 0-17.76203125-7.96648416-17.76203125-17.76203125V80.25501917c0-9.79441032 7.96648416-17.76203125 17.76203125-17.76203125h274.71865882c9.79554709 0 17.76203125 7.96762093 17.76203125 17.76203125v170.50640584c0 9.79554709-7.96648416 17.76203125-17.76203125 17.76203125h-67.49571875v21.3144375h43.81338934c1.96092825 0 3.55240625 1.591478 3.55240625 3.55240625 0 1.96092825-1.591478 3.55240625-3.55240625 3.55240625H53.31864559c-1.96092825 0-3.55240625-1.591478-3.55240625-3.55240625 0-1.96092825 1.591478-3.55240625 3.55240625-3.55240625h43.81793642v-21.3144375zm7.1048125 21.3144375h125.51759632v-21.3144375H104.24139451v21.3144375zm210.77534632-49.72914042H18.98364451v10.65267167c0 5.87823767 4.77898108 10.65721875 10.65721875 10.65721875h274.71865882c5.87369059 0 10.65721875-4.77898108 10.65721875-10.65721875v-10.65267167zm-143.27962757 10.65721875c0 2.614571-2.12234959 4.73692059-4.73692059 4.73692059-2.614571 0-4.73692059-2.12234959-4.73692059-4.73692059 0-2.614571 2.12234959-4.73578382 4.73692059-4.73578382 2.614571 0 4.73692059 2.12121282 4.73692059 4.73578382zm143.27962757-17.76657833V80.25501917c0-5.87823767-4.78352816-10.65721875-10.65721875-10.65721875H29.64086326c-5.87823767 0-10.65721875 4.77898108-10.65721875 10.65721875v152.74437459h296.03309632z" fill="#252d40" fill-rule="nonzero"/>
  <path d="M272.22530772 108.37188835c-1.96092825 0-3.55240625-1.591478-3.55240625-3.55240625v-6.56029967c0-1.96092825 1.591478-3.55240625 3.55240625-3.55240625 1.96092825 0 3.55240625 1.591478 3.55240625 3.55240625v6.56029967c0 1.96092825-1.591478 3.55240625-3.55240625 3.55240625zm-7.65387241-14.209625h-6.55575259c-1.96092825 0-3.55240625-1.591478-3.55240625-3.55240625 0-1.96092825 1.591478-3.55240625 3.55240625-3.55240625h6.55575259c1.96547533 0 3.55240625 1.591478 3.55240625 3.55240625 0 1.96092825-1.58693092 3.55240625-3.55240625 3.55240625zm21.86349741 0h-6.56029967c-1.96092825 0-3.55240625-1.591478-3.55240625-3.55240625 0-1.96092825 1.591478-3.55240625 3.55240625-3.55240625h6.56029967c1.96092825 0 3.55240625 1.591478 3.55240625 3.55240625 0 1.96092825-1.591478 3.55240625-3.55240625 3.55240625zm-14.209625-7.64932533c-1.96092825 0-3.55240625-1.591478-3.55240625-3.55240625V76.4002321c0-1.96092825 1.591478-3.55240625 3.55240625-3.55240625 1.96092825 0 3.55240625 1.591478 3.55240625 3.55240625v6.56029967c0 1.96092825-1.591478 3.55240625-3.55240625 3.55240625zM97.78226737 54.26390989c-1.96092825 0-3.55240625-1.591478-3.55240625-3.55240625v-6.56029967c0-1.96092825 1.591478-3.55240625 3.55240625-3.55240625 1.96092825 0 3.55240625 1.591478 3.55240625 3.55240625v6.56029967c0 1.96092825-1.591478 3.55240625-3.55240625 3.55240625zm-7.64932533-14.209625h-6.56029967c-1.96092825 0-3.55240625-1.591478-3.55240625-3.55240625 0-1.96092825 1.591478-3.55240625 3.55240625-3.55240625h6.56029967c1.96092825 0 3.55240625 1.591478 3.55240625 3.55240625 0 1.96092825-1.591478 3.55240625-3.55240625 3.55240625zm21.85895033 0h-6.55575259c-1.96092825 0-3.55240625-1.591478-3.55240625-3.55240625 0-1.96092825 1.591478-3.55240625 3.55240625-3.55240625h6.55575259c1.96092825 0 3.55240625 1.591478 3.55240625 3.55240625 0 1.96092825-1.591478 3.55240625-3.55240625 3.55240625zm-14.209625-7.64932533c-1.96092825 0-3.55240625-1.591478-3.55240625-3.55240625v-6.56029967c0-1.96092825 1.591478-3.55240625 3.55240625-3.55240625 1.96092825 0 3.55240625 1.591478 3.55240625 3.55240625v6.56029967c0 1.96092825-1.591478 3.55240625-3.55240625 3.55240625zM52.96624689 112.86667693c-1.96092825 0-3.55240625-1.591478-3.55240625-3.55240625v-6.55575259c0-1.96092825 1.591478-3.55240625 3.55240625-3.55240625 1.96092825 0 3.55240625 1.591478 3.55240625 3.55240625v6.55575259c0 1.96092825-1.591478 3.55240625-3.55240625 3.55240625zm-7.64932533-14.209625h-6.56029967c-1.96092825 0-3.55240625-1.591478-3.55240625-3.55240625 0-1.96092825 1.591478-3.55240625 3.55240625-3.55240625h6.56029967c1.96092825 0 3.55240625 1.591478 3.55240625 3.55240625 0 1.96092825-1.591478 3.55240625-3.55240625 3.55240625zm21.85895033 0H60.6201193c-1.96092825 0-3.55240625-1.591478-3.55240625-3.55240625 0-1.96092825 1.591478-3.55240625 3.55240625-3.55240625h6.55575259c1.96092825 0 3.55240625 1.591478 3.55240625 3.55240625 0 1.96092825-1.591478 3.55240625-3.55240625 3.55240625zm-14.209625-7.64932533c-1.96092825 0-3.55240625-1.591478-3.55240625-3.55240625v-6.56029967c0-1.96092825 1.591478-3.55240625 3.55240625-3.55240625 1.96092825 0 3.55240625 1.591478 3.55240625 3.55240625v6.56029967c0 1.96092825-1.591478 3.55240625-3.55240625 3.55240625z" fill="#252d40" fill-rule="nonzero"/>
  <path d="M88.33004196 138.32132516c53.67136949 9.82849707 20.75397536 15.27816338 67.0488566 22.08172052 0 0 4.54138859.47857937 6.5409637 4.32426588 17.04356425-.89008943 27.809895-5.50650472 33.96890462-4.6050476 5.68270378.83211425 7.1934686 6.10671827 5.35531456 10.60149938 3.2295582-.54337516 5.31552768-.43992926 6.4841253.89349973 5.1859361 5.91574124-4.43680593 10.35936778-4.43680593 10.35936778-44.46582135 24.19042535-92.55565943 12.1691026-115.98672369 3.5467165l-.10458266 4.79261434-22.73422541.8412084-14.16299387-52.85744352 38.13288621-4.87218812-.10571943 4.89378671z" fill="#fff" fill-rule="nonzero"/>
  <path d="M88.05494408 150.959913l-.75026696 34.55661374c22.14424276 8.13698612 66.29858965 19.29891218 108.6113722.09548852.15005339-1.22884633-.22394332-2.58955775-1.4971236-4.03780032-3.9639104-4.52320031-18.4679347 5.11204618-52.36749647 6.09421383 4.598227-.95033814 6.52391217-3.12497553 7.07297117-5.51559887 2.47133387-10.78565581-7.05819319-11.79169559-7.05819319-11.79169559-41.9115034-6.15673608-18.90786395-11.20853355-54.01126315-19.40122131zm-9.26124979 39.66865992l.7559508-34.91242216c.08412083-3.77407012-3.2079596-6.73535104-6.95361053-6.2590452l-18.6634588 2.38721302 10.53329329 39.31285151 14.32782524-.52859717zm83.70478293-18.71120307c-.02046183.09321499-.04092365.1852932-.06138548.27737142-.549059 2.39062333-2.47815447 4.56526072-7.07410794 5.51559886 20.05827328-.5808885 33.32549388-4.19126401 41.63526876-6.1055815-.85030255-1.98138682-2.63616525-3.50579286-5.47467522-3.92184998-5.54060776-.81051567-14.80867815 2.84305704-29.02510012 4.2344612z" fill="#a8abb3" fill-rule="nonzero"/>
  <path d="M89.5509309 188.70857159l-.03637657 1.65854467c-.02273537 1.22657279-1.00376624 2.21783458-2.2280655 2.26103177l-22.7342254.84234516c-1.07879294.04206042-2.0427723-.67069318-2.32241725-1.7142463L48.0668523 138.89880336c-.17278875-.64454752-.06024871-1.33570253.31147446-1.8893086.37627025-.55474283.96397936-.9230557 1.6289887-1.004903l38.13629652-4.87332489c.67069318-.08639437 1.3402496.12390773 1.84156433.5740679.50131474.45357047.78550677 1.09698122.76504494 1.77335825l-.06365901 2.93172495c26.34687446 4.97449724 31.2747642 8.96000623 35.6808774 12.52263749 3.94799564 3.19204485 7.35602643 5.95098105 29.3468055 9.18167601.10117236.01023092 4.67211692.52859717 7.43332666 4.22877737 8.23702172-.5558796 14.81208846-1.9177278 20.15830888-3.0192561 5.35190425-1.1083489 9.57954485-1.98252358 12.91823278-1.4937133 3.04653854.4456131 5.4826326 2.02344724 6.8547117 4.43680593.96284259 1.69264772 1.35616435 3.73428324 1.16859762 5.82593656 2.25875823-.02387213 3.93549119.52859717 5.22231269 1.9961648 2.21897135 2.52476197 2.29058774 4.88923964 1.96547206 6.4306972-.9730735 4.57435486-6.5409637 7.2639482-7.17187 7.55837115-43.0380406 23.41969658-89.87174992 13.19105713-114.71240663 4.6300565zm1.03445899-47.6112587c24.49848951 4.66870662 28.91824392 8.24043201 32.87078663 11.4381607 4.47886635 3.6183329 8.34160438 6.74330843 31.67718012 10.17293781.02955597.00227354 2.83964674.35126135 4.36746308 2.48952216 1.08106647 1.53122664 1.31296716 3.70586403.67865056 6.48071499-.1500534.65364166-.58884588 2.56454885-4.51751647 3.58877692-.1352754.00568384-.2705508.02387213-.40582621.0534281-4.70394644 1.0230913-14.70523226.95261167-35.62858607-5.21094501-1.22770956-.35808196-2.50998398.34103043-2.87147624 1.56873999-.12618126.4240145-.12618126.85484962-.01932506 1.25158169.20120796.75140372.7809597 1.38799386 1.58579151 1.62330486 16.84008277 4.96085602 29.27064204 6.79673652 36.97565628 5.47240167.04206042.00113677.08639438.00113677.12959156 0 18.2610429-.5308707 30.99284572-3.5433062 39.42084448-5.539471 5.24618483-1.24248754 10.1979467-2.41563222 11.13691717-1.34479667 1.15268286 1.3084201.97875734 2.13485051.92078216 2.40881163-.38309085 1.82564958-3.2579774 3.70131696-4.71986118 4.39019843-42.48670807 23.11504273-88.89753965 12.28846326-112.52981187 3.91275583l.92873955-42.7561221zm-37.36102067-.83893487l13.00121686 48.51953642 18.70892954-.69229178 1.13108426-52.02191896-32.84123066 4.19467432zm22.11127648 35.78318653c-.08412084 1.69946832-1.53577371 3.01243549-3.23524203 2.92717788-1.7040154-.08298407-3.0158458-1.53350018-2.93172496-3.23410527.08753115-1.7040154 1.53804726-3.0158458 3.23751558-2.93172495 1.70174186.08753114 3.01243549 1.53463694 2.92945141 3.23865234zm124.13621426-7.34352198c-1.67332265.33193628-3.55922095.77754938-5.68952438 1.28113765-6.8547117 1.6221681-16.62296006 3.93662797-29.94701906 4.96653987.4274248-.76390817.69229177-1.52781634.85825992-2.23374933.49108382-2.14735496.59680326-4.10827995.31829507-5.86913375 7.73002314-.61044447 14.04363322-1.9143175 19.22956933-2.98628982 4.90515439-1.01399715 8.78153364-1.81314513 11.31197945-1.44596903 1.6505873.24440514 2.8305526.96397935 3.50124578 2.14508142.64454751 1.13222103.78209645 2.62252402.4171939 4.14238299z" fill="#252d40"/>
  <g>
    <path d="M123.5778107 132.52949165c-3.06700035.48881028-5.06202838.35353488-6.19652295-.941244-5.18593611-5.91574124 4.43680593-10.35936777 4.43680593-10.35936777 44.46582134-24.1926989 92.55679619-12.17023938 115.98672368-3.54785327l.10458267-4.79375112 22.7342254-.83893486 14.16299387 52.85744353-38.1328862 4.87218811.10571943-4.8937867c-53.6713695-9.82849708-20.75397537-15.2815737-67.04771983-22.08172052 0 0-4.52774738-.47630584-6.53186956-4.3060776l-.27623465.04319719c-17.059479.88667912-27.83263037 5.50764149-33.99959736 4.60732114-5.68838762-.83097748-7.19915244-6.11922273-5.34622042-10.61741413z" fill="#fff" fill-rule="nonzero"/>
    <path d="M249.05427457 168.19559106l.86735406-39.9585358c.07047963-3.26593477 2.67822567-5.9134677 5.94643398-6.03510188l7.42309575-.27282435 11.51546094 42.97665513-25.75234473 3.2898069zm-12.27482204-3.3114055c-53.6713695-9.82849707-20.75397537-15.28157369-67.04771983-22.08172051 0 0-5.54174453-.5990768-7.06615057-5.68043024 30.67455065-3.60810198 58.71293606 4.28334223 74.49582448 10.20817761l-.38195408 17.55397314zm-74.09909241-33.90183531l-.00682061.0284192c-.76845524 3.35119239-.37740701 5.75886724.52632363 7.485618l-.27623465.04319719c-16.20576616.84234517-26.68449458 4.99950614-32.98105314 4.64710803 1.31410393-3.5501268 4.34359094-6.2056171 8.07219034-6.99680771l24.66559443-5.20753471z" fill="#a8abb3" fill-rule="nonzero"/>
    <path d="M234.42293224 166.79509275c-26.3457377-4.97449724-31.27476421-8.96341654-35.6808774-12.52604779-3.94913241-3.19204485-7.35488967-5.94757075-29.25018021-9.16576126-.19552412-.02273536-4.76419515-.53996485-7.52540488-4.2344612-3.52966498.24099483-7.04568874.691155-10.54693452 1.19588004-7.05137258 1.01399716-15.25542802 4.30153053-22.53415422 3.30685843-5.3609984-.73207866-8.38821188-5.32007475-8.00853133-10.25933218-2.2667156.02728243-3.94799564-.52518687-5.2359539-1.9961648-2.22238166-2.53385611-2.29286128-4.89492348-1.96660884-6.4306972.97193674-4.5766284 6.53982694-7.26735851 7.0365946-7.49016506 43.13239235-23.46630407 89.99452087-13.25471615 114.84768204-4.69712583l.03637658-1.66195497c.02273536-1.22429925 1.00376624-2.21556105 2.2280655-2.26216854l22.7342254-.83893486c1.07879294-.04206042 2.0427723.67069318 2.32241725 1.7142463l14.16299386 52.85744353c.17278876.64454752.06024871 1.33229223-.31261123 1.8858983-.3739967.55815314-.96284258.9230557-1.62785193 1.0083133l-38.13629651 4.87332489c-.66955642.08639438-1.3402496-.12390772-1.84042757-.5740679-.50131474-.45129693-.78664353-1.09698122-.7661817-1.77335825l.063659-2.93172495zm24.46211293-52.36749647l13.0000801 48.51612612-32.8400939 4.19808463 1.1299475-52.02191897 18.7100663-.69229178zm-23.43220103 4.9187956l-.92760277 42.76180596c-24.49962629-4.66870662-28.9193807-8.24043202-32.8719234-11.43816071-4.47772959-3.6183329-8.34160439-6.74330842-31.58055484-10.16043336-.10912974-.01250445-2.97151184-.37968055-4.48455019-2.53158258-1.07197233-1.52099573-1.2868215-3.69335958-.65818873-6.45115902.15005339-.65477843.58998264-2.56795915 4.53229445-3.59218722.1284548-.0068206.25804636-.02387213.38763792-.05229133 4.70735674-1.02081776 14.70977933-.95033814 35.63199637 5.20980824 1.22770956.36149226 2.50998399-.33989366 2.87147625-1.56532969.12618126-.4240145.12618126-.85484961.01932505-1.25158168-.20120795-.75367726-.77982292-1.38572033-1.58465474-1.62330486-16.8423563-4.9585825-29.2751891-6.80014683-36.97792981-5.47581198-.04206042-.00113677-.08525761-.00113677-.1284548 0-18.2644532.53200747-30.99511926 3.5467165-39.42425478 5.5428813-5.24391129 1.23907723-10.19567317 2.4133587-11.13464363 1.34138636-.53200747-.60135033-.78664353-1.09925476-.8946365-1.50167067-.10230913-.38195408-.07275316-.67978733-.02273536-.91055125.39104823-1.84383788 3.25684063-3.7070008 4.58117548-4.31744528 42.6174364-23.18097528 89.02940475-12.36576349 112.66622403-3.98437222zm21.5121997 34.6543758c.08412084-1.70060508 1.53463694-3.01243548 3.23524203-2.92831464 1.70287863.08298407 3.0158458 1.53463695 2.93058819 3.23410527-.08639438 1.7040154-1.53691048 3.01698256-3.23751558 2.93172495-1.70060509-.08753114-3.01243548-1.53463695-2.92831464-3.23751557zm-96.8662841-17.63127336c-3.19659192.2603199-6.3806794.6809241-9.55339918 1.14358872-6.69897447.97534703-14.08455687 3.79794225-20.98928637 3.27843922-3.65925654-.27509788-4.3879249-3.41712493-3.8320453-6.3022424 1.65172407-.32966275 3.5080664-.769592 5.59971971-1.2652229 6.858122-1.62330486 16.62296006-3.93662796 29.95156614-4.96426633-.42856158.76390817-.69342855 1.52781634-.8593967 2.23374933-.49222059 2.15076527-.59794002 4.11396379-.3171583 5.87595436z" fill="#252d40"/>
  </g>
</svg>
