<svg viewBox="0 0 334 334" xmlns="http://www.w3.org/2000/svg" fill-rule="evenodd" clip-rule="evenodd" stroke-linejoin="round" stroke-miterlimit="2">
  <circle cx="167" cy="167" r="167" fill="#bfecee"/>
  <path d="M228.56744228 52.66156875V30.67379556c0-2.43171072-1.97048781-4.39797681-4.39797681-4.39797681h-21.99199491v237.47175H26.27211875v13.192875c0 2.43276615 1.96521066 4.39797681 4.39797681 4.39797681h193.49936991c2.427489 0 4.39797681-1.96521066 4.39797681-4.39797681v8.79595362c0 2.43171072-1.97048781 4.39692138-4.39797681 4.39692138h-171.507375v13.192875c0 2.43276615 1.97048781 4.39797681 4.39797681 4.39797681h193.49514819c2.427489 0 4.39797681-1.96521066 4.39797681-4.39797681V57.05954556c0-2.427489-1.97048781-4.39797681-4.39797681-4.39797681h-21.98777319z" fill="#878c96" fill-rule="nonzero"/>
  <path d="M202.17747056 52.66156875v-26.38575h-171.507375c-2.43276615 0-4.39797681 1.96626609-4.39797681 4.39797681v233.07377319h26.38997172v26.38575h171.507375c2.427489 0 4.39797681-1.96521066 4.39797681-4.39692138V52.66156875h-26.38997172z" fill="#fff" fill-rule="nonzero"/>
  <path d="M287.40751938 114.22865864L166.35399917 235.28217885 149.4143341 272.5432853l37.25670881-16.93966505 121.05791785-121.05352022-3.38617396-16.93966505-16.93526743-3.38177633z" fill="#878c96" fill-rule="nonzero"/>
  <path d="M166.3540655 235.28262165l121.05359928-121.05359928 16.93542978 3.38159772.45277947 2.27761794-82.43119386 82.43119386 2.93092911 14.6599227-38.62451628 38.62451628-2.93092911-14.66097813-26.62533261 14.66097813 9.23923422-20.32124922z" fill="#fff" fill-rule="nonzero"/>
  <path d="M258.25141103 188.68644258v114.63975117c0 4.24388403-3.45653325 7.69619556-7.69619556 7.69619556H57.06006728c-4.24388403 0-7.69619556-3.45231153-7.69619556-7.69619556v-18.68955444H30.67009556c-4.24388403 0-7.69619556-3.45231153-7.69619556-7.69619556V30.67379556c0-4.24388403 3.45231153-7.69619556 7.69619556-7.69619556h193.49514819c4.24388403 0 7.69619556 3.45231153 7.69619556 7.69619556V49.36335h18.69377616c4.23966231 0 7.69619556 3.45231153 7.69619556 7.69619556v81.66284082l26.82586431-26.82480888c.78207363-.77785191 1.899774-1.11664494 2.9763126-.90555894l16.93542978 3.38581944c1.30662234.2638575 2.32616772 1.28445831 2.5858035 2.59002522l3.38687487 16.93120806c.21952944 1.08181575-.12348531 2.19951612-.90239265 2.97736803l-6.73047711 6.73047711 4.17105936 20.85107508c.21636315 1.08181575-.12242988 2.19951612-.90133722 2.97736803l-35.44872741 35.44978284c-.64697859.64170144-1.49132259.96677388-2.33566659.96677388-.844344 0-1.68446628-.32507244-2.33038944-.96677388-1.28868003-1.28868003-1.28868003-3.377376 0-4.66605603l34.20015372-34.20015372-2.96048115-14.80557204-39.47202657 39.473082zm-6.5964375-43.3676187l-87.63657462 87.6323529c-.31240728.31135185-.55198989.6754752-.71452611 1.06915059l-16.15230072 35.52682923c-3.23594838.36728964-5.89035483-.04327263-8.94265839-.81690282-1.48604544-.37362222-2.97209088-.92772297-4.40219853-1.63169478 2.09819484-3.72883419 3.76049709-7.78379625 4.8022065-11.85142347.97627275-3.79004913.2955204-8.24079744-1.77628869-11.61395172-1.69713144-2.76628203-4.22172-4.63967028-7.11043191-5.28559344-2.638575-.57204306-5.37847128.01266516-7.7363019 1.67496741-3.04280469 2.15096634-5.22860022 5.87557881-5.70776544 9.73634175-.94566528 7.599096 2.78422434 14.42456181 8.40861081 19.20038256-.98577162 1.25807256-2.02748103 2.427489-3.1135185 3.47869728-5.07978459 4.9077495-15.36072822 7.15053825-23.39993853 5.10933663-1.51243119-.37362222-3.02169609-.97627275-4.45074831-1.74990294 1.64013822-2.91087594 2.98158975-6.015951 3.83965434-9.34899894.81795825-3.19689747.91927953-7.88089581-1.25807256-11.42925147-1.29712347-2.11086-3.22328322-3.50508303-5.56317153-4.02857631-2.41799013-.53193672-4.93835697.00844344-7.09354503 1.5303735-2.75256144 1.93882491-4.72727097 5.31620091-5.15788641 8.79489819-.77890734 6.25342275 1.97470953 11.91791556 6.32835828 16.0953075-2.63013156 3.62856834-5.66871453 7.01016606-8.51837553 10.18912122-1.21796622 1.35517212-1.1082015 3.43964637.25013691 4.65339087.62903628.56676591 1.41638706.84856572 2.20373784.84856572.90133722 0 1.79845272-.3694005 2.45387475-1.09553634 2.96786916-3.30666219 6.12571572-6.82018866 8.9183835-10.65456585 2.04436791 1.15147413 4.22172 2.04014619 6.42440241 2.59846866 10.36537803 2.60796753 22.81945203-.22375116 29.6048115-6.77269431 1.40794362-1.35411669 2.75361687-2.88026847 4.010634-4.53307185 2.06336565 1.08181575 4.23121887 1.92615975 6.42123612 2.48448222 3.68239527.93511098 7.83445689 1.6675794 13.24670193.68391864.19103283-.02427489.38101023-.06754752.56782134-.12770703.17836767-.05488236.3482919-.12454074.51082812-.20686428l37.12686111-16.87104855.00738801-.00633258c.35040276-.15936993.6754752-.38206566.95516415-.66281004l38.62451628-38.62451628.04432806-.04538349 23.98464675-23.98464675v108.04225824c0 .60687225-.49710753 1.09975806-1.09975806 1.09975806H57.06006728c-.60687225 0-1.09975806-.49288581-1.09975806-1.09975806V91.14149112h31.88242944c1.82061675 0 3.29821875-1.477602 3.29821875-3.29821875V55.9597875h159.41425806c.60265053 0 1.09975806.49710753 1.09975806 1.09975806v88.25927832zm26.38575 123.95286549v-5.49773487c0-1.82061675 1.477602-3.29821875 3.29821875-3.29821875 1.82061675 0 3.29821875 1.477602 3.29821875 3.29821875v5.49773487h5.49667944c1.82061675 0 3.29821875 1.477602 3.29821875 3.29821875 0 1.82061675-1.477602 3.29821875-3.29821875 3.29821875h-5.49667944v5.49667944c0 1.82061675-1.477602 3.29821875-3.29821875 3.29821875-1.82061675 0-3.29821875-1.477602-3.29821875-3.29821875v-5.49667944h-5.49667944c-1.82061675 0-3.29821875-1.477602-3.29821875-3.29821875 0-1.82061675 1.477602-3.29821875 3.29821875-3.29821875h5.49667944zM225.26500181 49.36335H87.84273866c-.72508041 0-1.42588593.24169347-1.99792899.67758606l-.33668217.29446497-35.18064819 35.18064819c-.66069918.65753289-.99843678 1.55359296-.96360759 2.45387475v190.07027784H30.67009556c-.60687225 0-1.09975806-.49710753-1.09975806-1.09975806V30.67379556c0-.60687225.49288581-1.09975806 1.09975806-1.09975806h193.49514819c.60687225 0 1.09975806.49288581 1.09975806 1.09975806V49.36335zM88.89816866 257.38438128c-.3377376 0-.83484513.09287784-1.4459391.527715-1.22324337.86228631-2.216403 2.59530237-2.41904556 4.22172-.43589259 3.52302534 1.00688022 6.85185156 3.41220519 9.54741978 1.17047187-2.20268241 2.11508172-4.48979922 2.72723112-6.87296016.58892994-2.3008374.3905091-4.9077495-.48866409-6.33258-.46122291-.75674331-.97627275-.95516415-1.372059-1.04276484l-.41372856-.04854978zm67.16123262 8.51415381l26.86597065-12.21660225-2.44226502-12.21238053-12.2113251-2.44226502-12.21238053 26.8712478zm-28.35623781-21.16981494c-.62903628 0-1.26229428.22375116-1.91243916.6860295-1.49976603 1.05965172-2.71773225 3.17895516-2.96470287 5.15788641-.60687225 4.86869859 1.80795159 9.41126931 5.51462175 12.80553219 1.68024456-3.0818556 3.02169609-6.41595897 3.87870525-9.77117094.53721387-2.08869597.14564934-4.64811372-1.00688022-6.52150197-.53193672-.87072975-1.47338028-1.97470953-2.92037481-2.29556025l-.58892994-.06121494zm78.35828949-44.49059622l-33.01807212 33.01701669 10.88781588 2.18051838c1.30662234.25963578 2.32616772 1.28023659 2.5858035 2.5858035l2.18051838 10.88992674 33.01807212-33.01596126-2.60796753-13.04617023-13.04617023-2.61113382zm89.57012238 16.25256657v-5.49667944c0-1.82061675 1.477602-3.29821875 3.29821875-3.29821875 1.82483847 0 3.29821875 1.477602 3.29821875 3.29821875v5.49667944h5.49667944c1.82483847 0 3.29821875 1.477602 3.29821875 3.29821875 0 1.82061675-1.47338028 3.29821875-3.29821875 3.29821875h-5.49667944v5.49773487c0 1.82061675-1.47338028 3.29821875-3.29821875 3.29821875-1.82061675 0-3.29821875-1.477602-3.29821875-3.29821875V223.087128h-5.49773487c-1.82061675 0-3.29821875-1.477602-3.29821875-3.29821875 0-1.82061675 1.477602-3.29821875 3.29821875-3.29821875h5.49773487zm-137.43915003 6.5964375H79.04784047c-1.82483847 0-3.29821875-1.477602-3.29821875-3.29821875 0-1.82061675 1.47338028-3.29821875 3.29821875-3.29821875h79.14458484c1.82061675 0 3.29821875 1.477602 3.29821875 3.29821875 0 1.82061675-1.477602 3.29821875-3.29821875 3.29821875zm69.12644328-12.79603332l76.83002685-76.82686056-2.6069121-13.04828109-13.04828109-2.60796753-76.83108228 76.82897142 10.89309303 2.17524123c1.30556691.25858035 2.32616772 1.27918116 2.5858035 2.5858035l2.17735209 10.89309303zm-47.13022665-9.19596159h-48.36507975c-1.82061675 0-3.29821875-1.477602-3.29821875-3.29821875 0-1.82061675 1.477602-3.29821875 3.29821875-3.29821875h48.36507975c1.82061675 0 3.29821875 1.477602 3.29821875 3.29821875 0 1.82061675-1.477602 3.29821875-3.29821875 3.29821875zm-70.35285294 0H79.04784047c-1.82483847 0-3.29821875-1.477602-3.29821875-3.29821875 0-1.82061675 1.47338028-3.29821875 3.29821875-3.29821875H109.835789c1.82061675 0 3.29821875 1.477602 3.29821875 3.29821875 0 1.82061675-1.477602 3.29821875-3.29821875 3.29821875zm92.34168156-21.99305034h-35.17220475c-1.82061675 0-3.29821875-1.477602-3.29821875-3.29821875 0-1.82061675 1.477602-3.29821875 3.29821875-3.29821875h35.17220475c1.82061675 0 3.29821875 1.477602 3.29821875 3.29821875 0 1.82061675-1.477602 3.29821875-3.29821875 3.29821875zm-57.16103337 0H79.04784047c-1.82483847 0-3.29821875-1.477602-3.29821875-3.29821875 0-1.82061675 1.47338028-3.29821875 3.29821875-3.29821875h65.96859672c1.82061675 0 3.29821875 1.477602 3.29821875 3.29821875 0 1.82061675-1.477602 3.29821875-3.29821875 3.29821875zM123.028664 157.11430956H79.04784047c-1.82483847 0-3.29821875-1.477602-3.29821875-3.29821875 0-1.82061675 1.47338028-3.29821875 3.29821875-3.29821875H123.028664c1.82061675 0 3.29821875 1.477602 3.29821875 3.29821875 0 1.82061675-1.477602 3.29821875-3.29821875 3.29821875zm105.53877828 0h-83.55100509c-1.82061675 0-3.29821875-1.477602-3.29821875-3.29821875 0-1.82061675 1.477602-3.29821875 3.29821875-3.29821875h83.55100509c1.82061675 0 3.29821875 1.477602 3.29821875 3.29821875 0 1.82061675-1.477602 3.29821875-3.29821875 3.29821875zm0-21.98777319h-48.36507975c-1.82061675 0-3.29821875-1.477602-3.29821875-3.29821875 0-1.82061675 1.477602-3.29821875 3.29821875-3.29821875h48.36507975c1.82061675 0 3.29821875 1.477602 3.29821875 3.29821875 0 1.82061675-1.477602 3.29821875-3.29821875 3.29821875zm-70.35813009 0H79.04784047c-1.82483847 0-3.29821875-1.477602-3.29821875-3.29821875 0-1.82061675 1.47338028-3.29821875 3.29821875-3.29821875h79.16147172c1.82061675 0 3.29821875 1.477602 3.29821875 3.29821875 0 1.82061675-1.477602 3.29821875-3.29821875 3.29821875zm-21.99199491-21.99305034H79.04784047c-1.82483847 0-3.29821875-1.477602-3.29821875-3.29821875 0-1.82061675 1.47338028-3.29821875 3.29821875-3.29821875h57.16947681c1.82483847 0 3.29821875 1.477602 3.29821875 3.29821875 0 1.82061675-1.47338028 3.29821875-3.29821875 3.29821875zm92.350125 0h-70.35813009c-1.82061675 0-3.29821875-1.477602-3.29821875-3.29821875 0-1.82061675 1.477602-3.29821875 3.29821875-3.29821875h70.35813009c1.82061675 0 3.29821875 1.477602 3.29821875 3.29821875 0 1.82061675-1.477602 3.29821875-3.29821875 3.29821875zm49.47328125-32.9821875v-5.49667944c0-1.82061675 1.477602-3.29821875 3.29821875-3.29821875 1.82061675 0 3.29821875 1.477602 3.29821875 3.29821875v5.49667944h5.49667944c1.82061675 0 3.29821875 1.477602 3.29821875 3.29821875 0 1.82061675-1.477602 3.29821875-3.29821875 3.29821875h-5.49667944v5.49667944c0 1.82061675-1.477602 3.29821875-3.29821875 3.29821875-1.82061675 0-3.29821875-1.477602-3.29821875-3.29821875v-5.49667944h-5.49667944c-1.82061675 0-3.29821875-1.477602-3.29821875-3.29821875 0-1.82061675 1.477602-3.29821875 3.29821875-3.29821875h5.49667944zm-89.05190625 10.99019259h-70.36235181c-1.82483847 0-3.29821875-1.477602-3.29821875-3.29821875 0-1.82061675 1.47338028-3.29821875 3.29821875-3.29821875h70.36235181c1.82061675 0 3.29821875 1.477602 3.29821875 3.29821875 0 1.82061675-1.477602 3.29821875-3.29821875 3.29821875zM84.54451991 60.62162181L60.62214353 84.54505362h23.92237638V60.62162181zm211.08705543-20.05317v-5.49667944c0-1.82061675 1.477602-3.29821875 3.29821875-3.29821875 1.82483847 0 3.29821875 1.477602 3.29821875 3.29821875v5.49667944h5.49667944c1.82483847 0 3.29821875 1.477602 3.29821875 3.29821875 0 1.82061675-1.47338028 3.29821875-3.29821875 3.29821875h-5.49667944v5.49667944c0 1.82061675-1.47338028 3.29821875-3.29821875 3.29821875-1.82061675 0-3.29821875-1.477602-3.29821875-3.29821875v-5.49667944h-5.49773487c-1.82061675 0-3.29821875-1.477602-3.29821875-3.29821875 0-1.82061675 1.477602-3.29821875 3.29821875-3.29821875h5.49773487z" fill="#252d40"/>
</svg>
