<svg viewBox="0 0 75 100" xmlns="http://www.w3.org/2000/svg" fill-rule="evenodd" clip-rule="evenodd" stroke-linejoin="round" stroke-miterlimit="2">
  <path d="M66.69034715 7.42252275v85.15492046H34.865193V90.0958986h29.34360954V9.90345045H23.74065523v-2.4809277h42.94969192zm-59.26866241 0h2.48154461V90.0958986h13.83742588v2.48154461H7.42168474V7.42252275z" fill="#878c96"/>
  <path d="M74.11184663 100.00048498H-.00135703V-.00021056h74.11320366v100.00069554zM16.27905621 3.72102675H3.72018874v92.55791246h23.72196249v-29.611968H16.27905621V3.72102675zm3.72154577 0v59.22439869h7.44154925V33.33314898h16.22797538c7.82249488 0 14.16284907 6.34081688 14.16284907 14.16254061v5.0081241c0 7.82172373-6.34035419 14.16315752-14.16284907 14.16315752h-5.06333807v-3.72154577h4.15338697c3.01055008 0 5.89771696-1.19620012 8.02761945-3.32486878 2.1283602-2.12882289 3.32363495-5.01598977 3.32363495-8.02638562v-3.1888388c0-3.01039585-1.19527475-5.89756273-3.32363495-8.02638562-2.12990249-2.12866866-5.01706937-3.32456033-8.02761945-3.32456033H31.163697v59.22455292h39.22814615V3.72102675H20.00060198z" fill="#252d40"/>
</svg>
