<svg viewBox="0 0 334 334" xmlns="http://www.w3.org/2000/svg" fill-rule="evenodd" clip-rule="evenodd" stroke-linejoin="round" stroke-miterlimit="2">
  <circle cx="167" cy="167" r="167" fill="#bfecee"/>
  <path d="M259.4138552 308.6664936H26.19154784l39.60177536-39.81344h158.52116672c2.71538736 0 5.27657536 1.2568192 6.944252 3.4124288l28.15511328 36.4010112zM154.86774528 185.9518568l-63.660044-16.796544 6.07714464-23.3154304 161.40342736 42.57568c2.349956.6246912 3.75781728 3.0416512 3.13785136 5.4054912l-4.96289584 19.0392704 9.22661376 2.4339584-4.831932 18.5165696c-.66432464 2.5593216-3.26459056 4.0859904-5.80465536 3.4134912L98.97470192 195.9458536c-2.53900864-.669312-4.06199136-3.2849408-3.39238592-5.8389504l4.8266512-18.5218816 54.45877808 14.3668352zM257.254008 79.3782632c6.4108912-24.5775616-9.63746-49.7691904-35.3602368-53.57152-19.42383856-2.8780416-38.80437456 8.467328-45.916556 26.873408-4.6418232 12.0231808-3.62157264 24.5244416 1.51875808 34.9094016 4.02608192 8.1401088 4.62492464 17.5689088 2.32777664 26.3698304l-9.50966464 36.4838784 45.18569328 11.9169408 9.38292544-36.0026112c2.3446752-8.9815296 7.498736-17.1439488 15.11576192-22.3720192 8.22009328-5.6392192 14.53593008-14.1607296 17.25554208-24.6073088z" fill="#fff" fill-rule="nonzero"/>
  <path d="M65.79437936 268.8530536l13.21044928-13.28h176.01751328l52.81222464 53.09344H259.4138552l-28.15511328-36.4010112c-1.66767664-2.1556096-4.22886464-3.4124288-6.944252-3.4124288H65.79437936zm34.61458784-97.268032l-3.2952192 12.6340608 147.11358256 38.80416c2.349956.6246912 3.75359264 3.0416512 3.142076 5.4054912l-1.62754256 6.236288 9.7113912 2.5593216c2.5400648.6724992 5.14033072-.8541696 5.80465536-3.4134912l4.831932-18.5165696-165.68087536-43.7092608zm-9.20126592-2.4297088l7.419524-28.4680704c1.23253872-4.7319296 6.046516-7.5611008 10.746428-6.32128l167.06233264 44.0715392c4.70413664 1.2398208 7.51246608 6.08224 6.27992736 10.815232l-7.419524 28.467008-18.43316048-4.8626048 4.96289584-19.0360832c.61996592-2.36384-.78789536-4.7808-3.13785136-5.4054912l-161.40342736-42.57568-6.07714464 23.3154304zM221.8937712 25.8067432c-2.99632592-.4472704-5.98420256-.5142016-8.93300128-.3059712 17.769892 8.9060992 27.52141728 29.37536 22.28920064 49.4504704-2.72383664 10.4465792-9.03861728 18.9680896-17.25448592 24.6073088-7.62230672 5.2280704-12.77108672 13.391552-15.11681808 22.3730816l-9.04706656 34.71392 21.66817856 5.7146496 9.38292544-36.0026112c2.3446752-8.9815296 7.498736-17.1439488 15.11576192-22.3720192 8.22009328-5.6392192 14.53593008-14.1607296 17.25554208-24.6073088 6.4108912-24.5775616-9.63746-49.7691904-35.3602368-53.57152z" fill="#a8abb3" fill-rule="nonzero"/>
  <path d="M307.83456656 311.9864936H26.19154784c-1.33709856 0-2.53900864-.8063616-3.04913392-2.050432-.51012528-1.2345088-.22918672-2.6687488.71713264-3.61216l52.81222464-53.1019392c.61679744-.6236288 1.4575008-.9689088 2.33305744-.9689088h176.01751328c.87555664 0 1.71626.34528 2.33200128.9689088l52.8132808 53.1019392c.94631936.9434112 1.22725792 2.3776512.71713264 3.61216-.51012528 1.2440704-1.71203536 2.050432-3.05019008 2.050432zm-273.66901072-6.64h265.70028352l-46.20805616-46.45344H80.373612l-46.20805616 46.45344zm62.21732944-131.3944448l-6.01588736-1.5872256c-1.76061872-.4653312-2.81677872-2.2799104-2.35418064-4.0509312l7.419524-28.47232c1.69830528-6.4891392 8.31726-10.3626496 14.78201536-8.68512l57.74237952 15.234816 8.6763544-33.2775552c2.18308272-8.3664 1.43954608-16.9102208-2.09436528-24.0506112-5.84901408-11.8192-6.43412672-25.1693184-1.637048-37.5824C180.58101664 31.5915112 201.383144 19.418532 222.374324 22.5175528c13.06998 1.9346304 24.70463856 9.3533696 31.93088528 20.3407104 7.23047136 11.0000896 9.46530592 24.615808 6.14368272 37.36992-2.81677872 10.7918592-9.41777872 20.2025984-18.58419136 26.501568-6.63690944 4.5555712-11.53009872 11.824512-13.782888 20.4692608l-8.55383984 32.7984128 57.74871648 15.2358784c6.45524992 1.69984 10.323964 8.3621504 8.634108 14.8555392l-7.42374864 28.4765696c-.22496208.8456704-.77522144 1.5766016-1.52720736 2.0228096-.51012528.297472-1.08678864.4472704-1.663452.4472704l-.84070336-.10624-6.0095504-1.5851008-3.98911632 15.3123712c-.54497856 2.0939904-1.8694032 3.8469504-3.73141328 4.94016-1.24943728.7351808-2.64462464 1.11552-4.05248592 1.11552-.686504 0-1.373008-.0924288-2.059512-.2740992L98.1382232 199.1596136c-4.2985712-1.1293312-6.87771392-5.5691008-5.7507912-9.8983808l3.99545328-15.309184zm6.38131872 1.6881536l-3.9922848 15.3070592c-.20172656.7798016.26404 1.5893504 1.04348608 1.7933312l156.47432864 41.2784896c.49322672.1243008.90618528-.0393088 1.10474336-.1508608.19327728-.1189888.54075392-.3845888.67277392-.897728l3.9922848-15.3081216-159.295332-42.0221696zm-7.52514-8.8529792l177.69892 46.8784 6.58304528-25.25856c.76994064-2.9524096-.98539728-5.976-3.92152208-6.7504896L108.53717456 137.583972c-2.90021536-.7829888-5.94934928.9912192-6.71506528 3.9393792l-6.58304528 25.263872zm79.106384-18.7163008l38.79592528 10.2340992 8.554896-32.7973504c2.65307392-10.1894784 8.49786336-18.8087296 16.44546736-24.2620288 7.85466192-5.39168 13.50511792-13.4531712 15.921612-22.7045504 2.851632-10.9204096.92836464-22.5940608-5.26812608-32.0271104-6.27992736-9.5520384-16.00504864-15.7362688-27.38517264-17.4276096-17.981124-2.656-35.77742 7.7735808-42.35624064 24.7985408-4.11057472 10.65056-3.617348 22.09792 1.39518736 32.2257792 4.24681936 8.57888 5.15722928 18.7651712 2.56963728 28.6890496l-8.67318592 33.2711808zM294.63256656 263.2882024c-1.821876 0-3.3005-1.4916096-3.3005-3.32v-6.1268608c0-1.83264 1.478624-3.32 3.3005-3.32s3.3005 1.48736 3.3005 3.32v6.1268608c0 1.8283904-1.478624 3.32-3.3005 3.32zm-7.10690064-13.28h-6.09509936c-1.821876 0-3.3005-1.4916096-3.3005-3.32 0-1.8368896 1.478624-3.32 3.3005-3.32h6.09509936c1.821876 0 3.3005 1.4831104 3.3005 3.32 0 1.8283904-1.478624 3.32-3.3005 3.32zm20.30890064 0H301.744748c-1.821876 0-3.3005-1.4916096-3.3005-3.32 0-1.8368896 1.478624-3.32 3.3005-3.32h6.08981856c1.821876 0 3.3005 1.4831104 3.3005 3.32 0 1.8283904-1.478624 3.32-3.3005 3.32zm-13.202-7.1531392c-1.821876 0-3.3005-1.48736-3.3005-3.32v-6.1268608c0-1.8368896 1.478624-3.32 3.3005-3.32s3.3005 1.4831104 3.3005 3.32v6.1268608c0 1.83264-1.478624 3.32-3.3005 3.32zM74.57740592 236.7282024c-1.821876 0-3.3005-1.4916096-3.3005-3.32v-6.13536c0-1.83264 1.478624-3.32 3.3005-3.32s3.3005 1.48736 3.3005 3.32v6.13536c0 1.8283904-1.478624 3.32-3.3005 3.32zm-7.10690064-13.28h-6.09509936c-1.821876 0-3.3005-1.4916096-3.3005-3.32 0-1.8368896 1.478624-3.32 3.3005-3.32h6.09509936c1.821876 0 3.3005 1.4831104 3.3005 3.32 0 1.8283904-1.478624 3.32-3.3005 3.32zm20.30890064 0h-6.09509936c-1.821876 0-3.3005-1.4916096-3.3005-3.32 0-1.8368896 1.478624-3.32 3.3005-3.32h6.09509936c1.821876 0 3.3005 1.4831104 3.3005 3.32 0 1.8283904-1.478624 3.32-3.3005 3.32zm-13.202-7.1531392c-1.821876 0-3.3005-1.48736-3.3005-3.32v-6.1268608c0-1.8368896 1.478624-3.32 3.3005-3.32s3.3005 1.4831104 3.3005 3.32v6.1268608c0 1.83264-1.478624 3.32-3.3005 3.32zM39.36714384 174.741412c-1.821876 0-3.3005-1.4831104-3.3005-3.32v-6.1268608c0-1.83264 1.478624-3.32 3.3005-3.32s3.3005 1.48736 3.3005 3.32v6.1268608c0 1.8368896-1.478624 3.32-3.3005 3.32zm-7.10690064-13.28h-6.09509936c-1.821876 0-3.3005-1.4831104-3.3005-3.32 0-1.8283904 1.478624-3.32 3.3005-3.32h6.09509936c1.821876 0 3.3005 1.4916096 3.3005 3.32 0 1.8368896-1.478624 3.32-3.3005 3.32zm20.30890064 0h-6.08981856c-1.821876 0-3.3005-1.4831104-3.3005-3.32 0-1.8283904 1.478624-3.32 3.3005-3.32h6.08981856c1.821876 0 3.3005 1.4916096 3.3005 3.32 0 1.8368896-1.478624 3.32-3.3005 3.32zm-13.202-7.14464c-1.821876 0-3.3005-1.4916096-3.3005-3.32v-6.13536c0-1.8283904 1.478624-3.32 3.3005-3.32s3.3005 1.4916096 3.3005 3.32v6.13536c0 1.8283904-1.478624 3.32-3.3005 3.32z" fill="#252d40" fill-rule="nonzero"/>
  <path d="M136.19589264 108.3371624c-1.821876 0-3.3005-1.4831104-3.3005-3.32v-6.1268608c0-1.83264 1.478624-3.32 3.3005-3.32s3.3005 1.48736 3.3005 3.32v6.1268608c0 1.8368896-1.478624 3.32-3.3005 3.32zm-7.11218144-13.28h-6.08981856c-1.821876 0-3.3005-1.4831104-3.3005-3.32 0-1.8283904 1.478624-3.32 3.3005-3.32h6.08981856c1.821876 0 3.3005 1.4916096 3.3005 3.32 0 1.8368896-1.478624 3.32-3.3005 3.32zm20.31418144 0h-6.09509936c-1.821876 0-3.3005-1.4831104-3.3005-3.32 0-1.8283904 1.478624-3.32 3.3005-3.32h6.09509936c1.821876 0 3.3005 1.4916096 3.3005 3.32 0 1.8368896-1.478624 3.32-3.3005 3.32zm-13.202-7.1531392c-1.821876 0-3.3005-1.4831104-3.3005-3.32v-6.1268608c0-1.8283904 1.478624-3.32 3.3005-3.32s3.3005 1.4916096 3.3005 3.32v6.1268608c0 1.8368896-1.478624 3.32-3.3005 3.32zM100.98563056 55.2129128c-1.821876 0-3.3005-1.48736-3.3005-3.32v-6.1311104c0-1.83264 1.478624-3.32 3.3005-3.32s3.3005 1.48736 3.3005 3.32v6.1311104c0 1.83264-1.478624 3.32-3.3005 3.32zm-7.11112528-13.28h-6.09087472c-1.821876 0-3.3005-1.48736-3.3005-3.32 0-1.8368896 1.478624-3.32 3.3005-3.32h6.09087472c1.821876 0 3.3005 1.4831104 3.3005 3.32 0 1.83264-1.478624 3.32-3.3005 3.32zm20.31312528 0h-6.09509936c-1.821876 0-3.3005-1.48736-3.3005-3.32 0-1.8368896 1.478624-3.32 3.3005-3.32h6.09509936c1.821876 0 3.3005 1.4831104 3.3005 3.32 0 1.83264-1.478624 3.32-3.3005 3.32zm-13.202-7.1488896c-1.821876 0-3.3005-1.48736-3.3005-3.32v-6.1311104c0-1.8368896 1.478624-3.32 3.3005-3.32s3.3005 1.4831104 3.3005 3.32v6.1311104c0 1.83264-1.478624 3.32-3.3005 3.32zM268.22856656 157.0343912c-1.821876 0-3.3005-1.482048-3.3005-3.32v-6.1257984c0-1.83264 1.478624-3.32 3.3005-3.32s3.3005 1.48736 3.3005 3.32v6.1257984c0 1.837952-1.478624 3.32-3.3005 3.32zm-7.11112528-13.28h-6.09087472c-1.821876 0-3.3005-1.482048-3.3005-3.32 0-1.827328 1.478624-3.32 3.3005-3.32h6.09087472c1.821876 0 3.3005 1.492672 3.3005 3.32 0 1.837952-1.478624 3.32-3.3005 3.32zm20.31312528 0h-6.09509936c-1.821876 0-3.3005-1.482048-3.3005-3.32 0-1.827328 1.478624-3.32 3.3005-3.32h6.09509936c1.821876 0 3.3005 1.492672 3.3005 3.32 0 1.837952-1.478624 3.32-3.3005 3.32zm-13.202-7.14464c-1.821876 0-3.3005-1.4916096-3.3005-3.32v-6.13536c0-1.827328 1.478624-3.32 3.3005-3.32s3.3005 1.492672 3.3005 3.32v6.13536c0 1.8283904-1.478624 3.32-3.3005 3.32zM182.90456864 294.2752232H122.2450752c-1.821876 0-3.3005-1.4831104-3.3005-3.32 0-1.8283904 1.478624-3.32 3.3005-3.32h60.65949344c1.821876 0 3.3005 1.4916096 3.3005 3.32 0 1.8368896-1.478624 3.32-3.3005 3.32zm-78.26568064 0h-9.743076c-1.821876 0-3.3005-1.4831104-3.3005-3.32 0-1.8283904 1.478624-3.32 3.3005-3.32h9.743076c1.821876 0 3.3005 1.4916096 3.3005 3.32 0 1.8368896-1.478624 3.32-3.3005 3.32z" fill="#252d40" fill-rule="nonzero"/>
</svg>
