<svg viewBox="0 0 334 334" xmlns="http://www.w3.org/2000/svg" fill-rule="evenodd" clip-rule="evenodd" stroke-linejoin="round" stroke-miterlimit="2"><circle cx="167" cy="167" r="167" fill="#bfecee"/><g fill-rule="nonzero"><path d="M158.208 276.92V30.697a4.401 4.401 0 014.397-4.397h140.698a4.396 4.396 0 014.397 4.397V276.92a4.396 4.396 0 01-4.397 4.397H162.605a4.401 4.401 0 01-4.397-4.397z" fill="#a8abb3"/><path d="M158.208 268.121V35.095h131.905a8.794 8.794 0 018.793 8.794v219.836c-4.854 0-8.793 3.94-8.793 8.793H162.605a4.398 4.398 0 01-4.397-4.397z" fill="#fff"/><path d="M158.208 241.745V65.873c21.857 0 39.572-17.72 39.572-39.572h70.349c0 21.852 17.719 39.572 39.57 39.572v175.872c-21.851 0-39.57 17.72-39.57 39.571h-70.35c0-21.852-17.714-39.571-39.57-39.571z" fill="#fff"/><path d="M290.113 61.709v165.236c-17.412 5.628-31.152 19.368-36.784 36.78H193.62c2.643 5.302 4.16 11.264 4.16 17.591h70.349c0-21.852 17.719-39.571 39.57-39.571V65.873c-6.322 0-12.28-1.522-17.586-4.164z" fill="#a8abb3"/><path d="M248.343 237.361c0 8.504-6.886 15.39-15.389 15.39-8.495 0-15.389-6.886-15.389-15.39 0-8.494 6.894-15.388 15.39-15.388 8.502 0 15.388 6.894 15.388 15.388z" fill="#fff"/><path d="M242.183 225.116c-.035 8.468-6.903 15.323-15.38 15.323-3.478 0-6.652-1.196-9.229-3.14-.004.005-.004.005-.009.005-.03 9.7 8.904 17.324 18.99 15.042 5.606-1.271 10.135-5.852 11.397-11.463 1.442-6.441-1.196-12.32-5.769-15.767z" fill="#a8abb3"/><path d="M248.338 70.265c0 8.503-6.89 15.389-15.388 15.389-8.5 0-15.39-6.886-15.39-15.389 0-8.495 6.89-15.389 15.39-15.389 8.499 0 15.388 6.894 15.388 15.389z" fill="#fff"/><path d="M242.174 58.02c-.035 8.468-6.903 15.327-15.38 15.327-3.478 0-6.652-1.2-9.229-3.144l-.004.005c-.04 9.7 8.899 17.323 18.985 15.046 5.606-1.275 10.14-5.857 11.397-11.463 1.442-6.445-1.196-12.32-5.769-15.771z" fill="#a8abb3"/><path d="M276.918 153.809c0 24.283-19.685 43.972-43.968 43.972-24.284 0-43.968-19.689-43.968-43.972 0-24.284 19.684-43.968 43.968-43.968 24.283 0 43.968 19.684 43.968 43.968z" fill="#fff"/><path d="M265.728 124.574c1.297 6.596 1.2 13.696-1.033 21.074-5.118 16.91-20.169 29.534-37.751 31.222-14.778 1.429-28.184-4.511-37.118-14.518a43.996 43.996 0 0050.4 34.84c17.957-2.88 32.568-17.095 35.905-34.977 2.704-14.496-1.772-27.968-10.403-37.64zM166.993 105.444v193.46a8.794 8.794 0 01-8.794 8.793H35.09a8.791 8.791 0 01-8.794-8.793v-193.46a8.794 8.794 0 018.794-8.794h123.11c4.855 0 8.794 3.94 8.794 8.794z" fill="#a8abb3"/><path d="M149.406 96.65v189.063a4.401 4.401 0 01-4.397 4.397H26.295V101.047a4.401 4.401 0 014.397-4.397h118.714z" fill="#fff"/><path d="M81.176 244.392v30.778a4.396 4.396 0 01-4.397 4.396H59.192a4.393 4.393 0 01-4.397-4.396v-30.778a4.396 4.396 0 014.397-4.397H76.78a4.398 4.398 0 014.397 4.397z" fill="#a8abb3"/><path d="M72.378 239.995v26.38a4.393 4.393 0 01-4.397 4.398H54.795v-26.381a4.396 4.396 0 014.397-4.397h13.186zM67.986 145.222c7.28 0 13.19 5.905 13.19 13.19 0 7.286-5.91 13.19-13.19 13.19-7.286 0-13.19-5.904-13.19-13.19 0-7.285 5.904-13.19 13.19-13.19z" fill="#fff"/><path d="M76.674 148.559c.022.356.105.695.105 1.06 0 7.285-5.909 13.19-13.19 13.19-3.346 0-6.362-1.284-8.688-3.337.545 6.78 6.164 12.13 13.085 12.13 7.28 0 13.19-5.904 13.19-13.19 0-3.94-1.763-7.435-4.502-9.853z" fill="#a8abb3"/><path d="M67.986 123.238c7.28 0 13.19 5.905 13.19 13.19 0 7.281-5.91 13.19-13.19 13.19-7.286 0-13.19-5.909-13.19-13.19 0-7.285 5.904-13.19 13.19-13.19z" fill="#fff"/><path d="M76.674 126.57c.022.357.105.7.105 1.06 0 7.286-5.909 13.19-13.19 13.19-3.346 0-6.362-1.283-8.688-3.332.545 6.78 6.164 12.13 13.085 12.13 7.28 0 13.19-5.909 13.19-13.19 0-3.94-1.763-7.44-4.502-9.857z" fill="#a8abb3"/></g><path d="M303.303 284.614H170.29v14.29c0 6.67-5.425 12.091-12.091 12.091H35.089c-6.67 0-12.091-5.422-12.091-12.092v-193.46c0-6.665 5.42-12.09 12.09-12.09H154.91V30.698c0-4.243 3.456-7.694 7.695-7.694h140.698c4.243 0 7.695 3.451 7.695 7.694V276.92c0 4.244-3.452 7.695-7.695 7.695zM35.089 99.948a5.5 5.5 0 00-5.496 5.496v193.46a5.498 5.498 0 005.496 5.496h123.11a5.501 5.501 0 005.496-5.497v-193.46a5.503 5.503 0 00-5.495-5.495H35.089zm98.027 183.694a3.299 3.299 0 01-3.298-3.297v-39.523a3.299 3.299 0 016.595 0v39.523a3.299 3.299 0 01-3.297 3.297zm-56.336-.773H59.192c-4.243 0-7.694-3.452-7.694-7.695v-30.778c0-4.243 3.451-7.694 7.694-7.694H76.78c4.242 0 7.694 3.451 7.694 7.694v30.778c0 4.243-3.452 7.695-7.694 7.695zm30.285 0a3.299 3.299 0 01-3.297-3.298V257.24a3.299 3.299 0 016.595 0v22.332a3.299 3.299 0 01-3.298 3.298zm63.226-4.85v-30.907c13.086 4.635 22.745 16.582 24.042 30.907h-24.042zM304.402 69.047v169.528c-21.012 1.604-37.838 18.431-39.443 39.444h-64.004c-1.374-17.986-13.901-32.905-30.664-37.836v-134.74c0-5.52-3.721-10.188-8.785-11.631V69.047c21.017-1.604 37.844-18.431 39.449-39.448h64.004c1.605 21.017 18.43 37.844 39.443 39.448zm0 176.145v31.727a1.1 1.1 0 01-1.1 1.1h-31.727c1.572-17.374 15.454-31.254 32.827-32.827zm-245.21-1.894a1.1 1.1 0 00-1.1 1.098v30.778a1.1 1.1 0 001.1 1.1H76.78a1.1 1.1 0 001.098-1.1v-30.778c0-.607-.491-1.098-1.098-1.098H59.192zm173.763 12.754c-10.303 0-18.688-8.38-18.688-18.686s8.385-18.682 18.688-18.682c10.305 0 18.686 8.376 18.686 18.682s-8.381 18.686-18.686 18.686zm0-30.778c-6.666 0-12.092 5.426-12.092 12.092 0 6.67 5.426 12.091 12.092 12.091 6.669 0 12.09-5.42 12.09-12.09 0-6.667-5.421-12.093-12.09-12.093zm-125.89 12.927a3.299 3.299 0 01-3.297-3.298v-22.33a3.299 3.299 0 016.595 0v22.33a3.299 3.299 0 01-3.298 3.298zm26.05-14.926a3.299 3.299 0 01-3.297-3.298v-59.485a3.299 3.299 0 016.595 0v59.485a3.299 3.299 0 01-3.297 3.298zm99.834-22.196c-26.064 0-47.265-21.206-47.265-47.27 0-26.06 21.201-47.266 47.265-47.266 26.06 0 47.266 21.206 47.266 47.265 0 26.065-21.206 47.27-47.266 47.27zm0-87.94c-22.428 0-40.67 18.246-40.67 40.67 0 22.428 18.242 40.67 40.67 40.67 22.424 0 40.671-18.242 40.671-40.67 0-22.424-18.247-40.67-40.67-40.67zm-125.884 80.395a3.299 3.299 0 01-3.297-3.298v-22.33a3.299 3.299 0 016.595 0v22.33a3.299 3.299 0 01-3.298 3.298zM55.708 147.42a16.422 16.422 0 01-4.21-10.992c0-9.089 7.4-16.488 16.488-16.488s16.488 7.399 16.488 16.488c0 4.22-1.594 8.073-4.21 10.992a16.42 16.42 0 014.21 10.991c0 9.093-7.4 16.488-16.488 16.488s-16.488-7.395-16.488-16.488a16.42 16.42 0 014.21-10.99zm151.96 3.069c1.009-5.035 4.27-9.237 8.864-11.173a3.299 3.299 0 112.559 6.081c-3.087 1.297-5.157 4.686-5.157 8.433 0 4.95 3.526 8.979 7.856 8.979 5.215 0 7.862-3.034 7.862-9.023 0-11.485 7.465-15.578 14.456-15.578 6.919 0 12.72 5.27 14.127 12.28h3.162a3.299 3.299 0 010 6.596h-3.156c-.998 5.054-4.263 9.278-8.873 11.216a3.304 3.304 0 01-4.323-1.76 3.306 3.306 0 011.764-4.321c3.081-1.297 5.157-4.682 5.157-8.433 0-4.955-3.526-8.983-7.858-8.983-5.218 0-7.861 3.025-7.861 8.983 0 11.52-7.47 15.618-14.457 15.618-6.932 0-12.742-5.29-14.135-12.32h-3.157a3.299 3.299 0 010-6.595h3.17zm-146.631.89a16.396 16.396 0 006.949 1.537c2.48 0 4.836-.552 6.948-1.538a9.865 9.865 0 012.944 7.033c0 5.453-4.44 9.893-9.892 9.893-5.453 0-9.893-4.44-9.893-9.893a9.865 9.865 0 012.944-7.033zm46.028-2.517a3.299 3.299 0 01-3.297-3.298v-22.327a3.299 3.299 0 016.595 0v22.327a3.299 3.299 0 01-3.298 3.298zm-39.08-22.327c-5.452 0-9.892 4.44-9.892 9.893 0 5.451 4.44 9.893 9.893 9.893 5.452 0 9.892-4.442 9.892-9.893 0-5.453-4.44-9.893-9.892-9.893zm164.964-37.58c-10.305 0-18.686-8.38-18.686-18.686 0-10.303 8.38-18.687 18.686-18.687 10.303 0 18.687 8.384 18.687 18.687 0 10.305-8.384 18.686-18.687 18.686zM88.954 66.976v-5.495a3.299 3.299 0 016.595 0v5.495h5.496a3.299 3.299 0 010 6.596h-5.496v5.495a3.299 3.299 0 01-6.595 0v-5.495h-5.496a3.296 3.296 0 01-3.297-3.298 3.296 3.296 0 013.297-3.298h5.496zm143.995-8.798c-6.669 0-12.09 5.426-12.09 12.092 0 6.67 5.421 12.09 12.09 12.09 6.666 0 12.092-5.42 12.092-12.09 0-6.666-5.426-12.092-12.092-12.092zM36.19 49.385v-5.496a3.299 3.299 0 016.595 0v5.496h5.495a3.299 3.299 0 010 6.595h-5.496v5.495a3.299 3.299 0 01-6.595 0V55.98h-5.495a3.295 3.295 0 01-3.298-3.298 3.295 3.295 0 013.298-3.297h5.495zm158.144-19.786c-1.571 17.373-15.45 31.253-32.827 32.827V30.698c0-.602.497-1.1 1.1-1.1h31.727zm77.242 0h31.728c.607 0 1.1.497 1.1 1.1v31.727c-17.374-1.574-31.253-15.452-32.828-32.827zm-147.447 2.198V26.3a3.299 3.299 0 016.595 0v5.496h5.497a3.296 3.296 0 013.298 3.298 3.296 3.296 0 01-3.298 3.297h-5.497v5.497a3.299 3.299 0 01-6.595 0v-5.497h-5.495a3.299 3.299 0 010-6.595h5.495z" fill="#242d40"/></svg>