<svg viewBox="0 0 334 334" xmlns="http://www.w3.org/2000/svg" fill-rule="evenodd" clip-rule="evenodd" stroke-linejoin="round" stroke-miterlimit="2"><circle cx="167" cy="167" r="167" fill="#bfecee"/><path d="M232.942 307.694H30.695a4.395 4.395 0 01-4.397-4.396V70.274l43.967-43.967h162.677a4.395 4.395 0 014.397 4.397v272.594a4.398 4.398 0 01-4.397 4.396z" fill="#a8abb3" fill-rule="nonzero"/><path d="M202.165 281.31H26.298V70.274l43.967-43.967H210.96v246.21a8.794 8.794 0 01-8.794 8.793z" fill="#fff" fill-rule="nonzero"/><path d="M26.298 70.274l43.967-43.967v43.967H26.298z" fill="#a8abb3" fill-rule="nonzero"/><path d="M26.298 70.274l21.984-21.983 21.983 21.983H26.298z" fill="#fff" fill-rule="nonzero"/><path d="M294.508 158.208h-96.726c-7.286 0-13.19 5.904-13.19 13.19v92.33l30.772-21.984h79.144c7.286 0 13.19-5.909 13.19-13.19v-57.156c0-7.286-5.904-13.19-13.19-13.19z" fill="#a8abb3" fill-rule="nonzero"/><path d="M272.524 158.208h-74.743c-7.285 0-13.19 5.905-13.19 13.19v71.6l20.638-14.747a21.991 21.991 0 0112.782-4.097h63.302a8.792 8.792 0 008.794-8.794v-57.152h4.4v-57.165c0-16.997-13.778-30.777-30.776-30.777h-35.174c-16.997 0-30.776 13.78-30.776 30.777v57.165h21.983V105.44c0-7.281 5.905-13.19 13.19-13.19h26.38c7.285 0 13.19 5.909 13.19 13.19v52.768z" fill="#fff" fill-rule="nonzero"/><path d="M263.732 70.265h-21.988c16.998 0 30.777 13.78 30.777 30.777v4.38l.004.017v52.769h21.983v-57.166c0-16.997-13.779-30.777-30.776-30.777z" fill="#a8abb3" fill-rule="nonzero"/><g><path d="M105.438 259.327c0 16.997 13.78 30.776 30.777 30.776 16.998 0 30.777-13.779 30.777-30.776 0-16.994-13.78-30.777-30.777-30.777s-30.777 13.783-30.777 30.777z" fill="#fff" fill-rule="nonzero"/><path d="M150.346 232.006a30.613 30.613 0 013.451 14.13c0 16.998-13.774 30.777-30.772 30.777-5.1 0-9.897-1.262-14.13-3.456 5.121 9.884 15.423 16.646 27.32 16.646 16.998 0 30.777-13.779 30.777-30.776 0-11.898-6.762-22.2-16.646-27.321z" fill="#a8abb3" fill-rule="nonzero"/></g><g><path d="M68.834 23.34c.443-.215.934-.33 1.435-.33h162.673c4.243 0 7.693 3.452 7.693 7.695v36.263h23.096c18.787 0 34.074 15.288 34.074 34.075v54.2c7.518 1.532 13.19 8.196 13.19 16.155v57.157c0 9.092-7.395 16.488-16.488 16.488h-53.872v58.255c0 4.243-3.45 7.695-7.693 7.695H30.699c-4.247 0-7.699-3.452-7.699-7.695V70.313l.05-.604.04-.195a3.25 3.25 0 01.24-.674l.276-.466.31-.376a2.44 2.44 0 01.052-.054l43.967-43.966.31-.274.47-.305.119-.059zm191.6 272.264v-5.496a3.299 3.299 0 016.595 0v5.496h5.495a3.299 3.299 0 010 6.595h-5.495v5.496a3.299 3.299 0 01-6.595 0V302.2h-5.497a3.299 3.299 0 010-6.595h5.497zM73.566 29.606h159.376a1.1 1.1 0 011.098 1.1v36.262h-5.483c-18.786 0-34.073 15.288-34.073 34.075v54.2c-7.518 1.532-13.19 8.196-13.19 16.155v92.33a3.298 3.298 0 005.214 2.687l29.91-21.372h17.622v58.255a1.1 1.1 0 01-1.098 1.1H30.699a1.1 1.1 0 01-1.1-1.1V73.573h40.67a3.299 3.299 0 003.297-3.298v-40.67zm62.653 263.796c-18.791 0-34.075-15.284-34.075-34.075 0-18.787 15.284-34.075 34.075-34.075 18.782 0 34.074 15.288 34.074 34.075 0 18.791-15.292 34.075-34.074 34.075zm0-61.555c-15.155 0-27.48 12.33-27.48 27.48 0 15.156 12.325 27.48 27.48 27.48 15.15 0 27.48-12.324 27.48-27.48 0-15.15-12.33-27.48-27.48-27.48zm-.083 48.377a3.321 3.321 0 01-3.254-3.34c0-1.804 1.451-3.298 3.298-3.255a3.293 3.293 0 013.297 3.298c-.044 1.803-1.495 3.297-3.297 3.297h-.044zm159.475-15.402v-5.495a3.299 3.299 0 016.595 0v5.495h5.497a3.299 3.299 0 010 6.595h-5.497v5.497a3.299 3.299 0 01-6.595 0v-5.497h-5.495a3.299 3.299 0 010-6.595h5.495zm-149.363 9.292a3.275 3.275 0 01.048-4.661 3.273 3.273 0 014.657.044 3.277 3.277 0 01-.045 4.66 3.367 3.367 0 01-2.325.967c-.84 0-1.676-.351-2.335-1.01zm-24.798-.045a3.24 3.24 0 010-4.66c1.276-1.275 3.342-1.275 4.661 0a3.278 3.278 0 01-.044 4.66c-.615.66-1.451.968-2.286.968-.88 0-1.714-.308-2.33-.968zm-42.405-7.025h-17.57a3.296 3.296 0 01-3.297-3.298 3.296 3.296 0 013.298-3.297h17.569a3.299 3.299 0 010 6.595zm74.72-4.314c-1.801 0-3.252-1.5-3.252-3.346 0-1.802 1.495-3.249 3.297-3.249a3.29 3.29 0 013.298 3.298c0 1.846-1.5 3.297-3.298 3.297h-.044zm-38.425-3.39v-.259c0-1.807 1.494-3.258 3.34-3.258 1.804 0 3.255 1.495 3.255 3.342v.176c0 1.802-1.496 3.297-3.298 3.297a3.293 3.293 0 01-3.297-3.297zm82.441-97.834c-5.456 0-9.892 4.44-9.892 9.892v85.92l25.553-18.255a3.313 3.313 0 011.921-.615h79.144c5.457 0 9.893-4.442 9.893-9.893v-57.157c0-5.452-4.436-9.892-9.893-9.892h-96.726zm-51.397 87.81c-1.275-1.319-1.275-3.386.04-4.66 1.274-1.32 3.385-1.275 4.66 0 1.275 1.319 1.275 3.385-.044 4.66-.615.66-1.446.971-2.286.971-.88 0-1.715-.355-2.37-.97zm-24.845-.263c-1.276-1.276-1.231-3.387.043-4.661a3.317 3.317 0 014.661.044c1.279 1.319 1.279 3.43-.044 4.66v.044a3.226 3.226 0 01-2.286.923c-.88 0-1.71-.351-2.374-1.01zm-29.3-3.993H61.476a3.296 3.296 0 01-3.298-3.298 3.296 3.296 0 013.298-3.297h30.763a3.299 3.299 0 010 6.595zm44.116-.009c-1.847-.044-3.297-1.534-3.297-3.342.048-1.802 1.54-3.297 3.346-3.253 1.798 0 3.297 1.495 3.249 3.298a3.293 3.293 0 01-3.298 3.297zm109.79-30.785c-7.879 0-14.29-6.41-14.29-14.29 0-7.878 6.411-14.288 14.29-14.288s14.289 6.41 14.289 14.288c0 7.88-6.41 14.29-14.29 14.29zm0-21.983c-4.244 0-7.695 3.45-7.695 7.693 0 4.243 3.451 7.695 7.694 7.695s7.695-3.452 7.695-7.695-3.452-7.693-7.695-7.693zm-114.332 13.202H61.476a3.296 3.296 0 01-3.298-3.297 3.296 3.296 0 013.298-3.298h70.337a3.299 3.299 0 010 6.595zm35.173-21.987h-52.75a3.299 3.299 0 010-6.595h52.75a3.299 3.299 0 010 6.595zm-74.734 0H61.476a3.296 3.296 0 01-3.298-3.297 3.296 3.296 0 013.298-3.298h30.776a3.299 3.299 0 010 6.595zm74.734-21.984h-30.763a3.299 3.299 0 010-6.595h30.763a3.299 3.299 0 010 6.595zm-52.746 0H61.476a3.296 3.296 0 01-3.298-3.297 3.296 3.296 0 013.298-3.298h52.764a3.299 3.299 0 010 6.595zm119.8-65.967v59.364h-10.978V105.44c0-5.452 4.436-9.893 9.892-9.893h1.086zm6.595 0h18.7c5.456 0 9.892 4.44 9.892 9.893v49.47h-28.592V95.548zm-24.168 59.364V105.44c0-9.089 7.396-16.488 16.487-16.488h26.38c9.093 0 16.488 7.4 16.488 16.488v49.47h15.388v-53.867c0-15.15-12.328-27.48-27.479-27.48h-35.174c-15.15 0-27.478 12.33-27.478 27.48v53.868h15.388zm-84.64-15.384H61.476a3.296 3.296 0 01-3.298-3.298 3.296 3.296 0 013.298-3.297h70.351a3.299 3.299 0 010 6.595zm48.355 0H153.81a3.299 3.299 0 010-6.595h26.372a3.299 3.299 0 010 6.595zm-79.136-21.984h-39.57a3.296 3.296 0 01-3.298-3.298 3.296 3.296 0 013.298-3.297h39.57a3.299 3.299 0 010 6.595zm79.136 0h-57.153a3.299 3.299 0 010-6.595h57.153a3.299 3.299 0 010 6.595zm0-21.987h-30.769a3.296 3.296 0 01-3.297-3.298 3.296 3.296 0 013.297-3.297h30.769a3.299 3.299 0 010 6.595zm-52.756 0h-65.95a3.296 3.296 0 01-3.298-3.298 3.296 3.296 0 013.298-3.297h65.95a3.299 3.299 0 010 6.595zm35.173-21.983h-52.76a3.296 3.296 0 01-3.298-3.298 3.296 3.296 0 013.298-3.297h52.76a3.299 3.299 0 010 6.595zM50.616 50.624L34.264 66.978h32.707V34.27L50.616 50.624zm223.008-10.053v-5.496a3.299 3.299 0 016.595 0v5.496h5.495a3.296 3.296 0 013.298 3.298 3.296 3.296 0 01-3.298 3.297h-5.495v5.496a3.299 3.299 0 01-6.595 0v-5.496h-5.497a3.299 3.299 0 010-6.595h5.497z" fill="#242d40"/></g></svg>