<svg viewBox="0 0 334 334" xmlns="http://www.w3.org/2000/svg" fill-rule="evenodd" clip-rule="evenodd" stroke-linejoin="round" stroke-miterlimit="2">
  <circle cx="167" cy="167" r="167" fill="#bfecee"/>
  <path d="M29.64086326 264.97105001c-7.84939685 0-14.209625-6.36136492-14.209625-14.209625h284.1925c2.614571 0 4.73578382-2.11666574 4.73578382-4.73692059v-9.46815733H15.43123826v-33.16071767h265.24595441c7.84826008 0 14.209625-6.36136492 14.209625-14.209625V66.04539417h9.47270441c7.84939685 0 14.209625 6.35681784 14.209625 14.209625v170.50640584c0 7.84826008-6.36022815 14.209625-14.209625 14.209625h-71.048125v28.41925H100.68898826v-14.209625h113.677c2.614571 0 4.73578382-2.11666574 4.73578382-4.73692059v-9.47270441H29.64086326z" fill="#a8abb3" fill-rule="nonzero"/>
  <path d="M219.10177208 264.97105001H100.68898826v14.209625h113.677c2.614571 0 4.73578382-2.11666574 4.73578382-4.73692059v-9.47270441zm80.52196618-14.209625h-284.1925v-14.209625h288.92828382v9.47270441c0 2.62025485-2.12121282 4.73692059-4.73578382 4.73692059zm-18.94654559-47.36579559H15.43123826V80.25501917c0-7.85280716 6.36022815-14.209625 14.209625-14.209625h265.24595441v123.14061025c0 7.84826008-6.36136492 14.209625-14.209625 14.209625z" fill="#fff" fill-rule="nonzero"/>
  <path d="M97.13658201 268.52345626H29.64086326c-9.79554709 0-17.76203125-7.96648416-17.76203125-17.76203125V80.25501917c0-9.79441032 7.96648416-17.76203125 17.76203125-17.76203125h274.71865882c9.79554709 0 17.76203125 7.96762093 17.76203125 17.76203125v170.50640584c0 9.79554709-7.96648416 17.76203125-17.76203125 17.76203125h-67.49571875v21.3144375h43.81338934c1.96092825 0 3.55240625 1.591478 3.55240625 3.55240625 0 1.96092825-1.591478 3.55240625-3.55240625 3.55240625H53.31864559c-1.96092825 0-3.55240625-1.591478-3.55240625-3.55240625 0-1.96092825 1.591478-3.55240625 3.55240625-3.55240625h43.81793642v-21.3144375zm7.1048125 21.3144375h125.51759632v-21.3144375H104.24139451v21.3144375zm210.77534632-49.72914042H18.98364451v10.65267167c0 5.87823767 4.77898108 10.65721875 10.65721875 10.65721875h274.71865882c5.87369059 0 10.65721875-4.77898108 10.65721875-10.65721875v-10.65267167zm-143.27962757 10.65721875c0 2.614571-2.12234959 4.73692059-4.73692059 4.73692059-2.614571 0-4.73692059-2.12234959-4.73692059-4.73692059 0-2.614571 2.12234959-4.73578382 4.73692059-4.73578382 2.614571 0 4.73692059 2.12121282 4.73692059 4.73578382zm143.27962757-17.76657833V80.25501917c0-5.87823767-4.78352816-10.65721875-10.65721875-10.65721875H29.64086326c-5.87823767 0-10.65721875 4.77898108-10.65721875 10.65721875v152.74437459h296.03309632z" fill="#252d40" fill-rule="nonzero"/>
  <path d="M165.1202728 81.9860205V36.94346346H71.3054055c-4.14677223 0-7.50544157 3.35866935-7.50544157 7.50634227v125.33808219l24.87793133-19.90522727c3.32534385-2.66423812 7.46040712-4.11344674 11.72426893-4.11344674h45.96846534v37.53621477h74.1005861c4.26296111 0 8.39532232 1.44560587 11.72426893 4.10984398l12.45202565 9.96792535c1.22673844.98265172 3.0506337.10447992 3.0506337-1.4681231l-.0072055-113.92905441h-82.57066562z" fill="#fff" fill-rule="nonzero"/>
  <path d="M146.37062953 183.30542868v11.2586127c0 4.14316948 3.35866935 7.50634227 7.50544158 7.50634227h67.55167625l37.52180375 30.02626975V89.49146208c0-4.150375-3.36317279-7.50544158-7.50634227-7.50544158h-3.75227044l.00720551 113.92905441c0 1.57260302-1.82389526 2.45077482-3.0506337 1.4681231l-12.45202565-9.96792535c-3.3289466-2.66423811-7.46130782-4.10984398-11.72426893-4.10984398h-74.1005861zm-82.5706656-13.51754076v24.77615347l37.52090305-30.02626975h67.55167626c4.14316947 0 7.50634226-3.3622721 7.50634226-7.50634227V44.44980573c0-4.14767292-3.36317279-7.50634227-7.50634226-7.50634227h-3.75227045v90.06169616c0 10.36152645-8.40252783 18.76405429-18.76495497 18.76405429h-45.95315363c-4.2638618 0-8.39892508 1.44920862-11.72426893 4.11344674l-24.87793133 19.90522727z" fill="#a8abb3" fill-rule="nonzero"/>
  <path d="M127.59846905 130.76553627h15.01178384c4.14316948 0 7.50544157-3.3622721 7.50544157-7.50544158v-11.2586127c0-6.12018188-4.88533722-11.09919076-10.96498808-11.25500996h7.21271764c6.21475422 0 11.25861271 5.0357523 11.25861271 11.2586127v15.01088316c0 6.21475421-5.0438585 11.2586127-11.2586127 11.2586127h-18.76495498v-7.50904432zm0-37.52900926h7.5027395c4.14316948 0 7.50544158-3.3622721 7.50544158-7.50544158V74.47607548c0-6.22195973-5.04025574-11.25861271-11.2586127-11.25861271h7.50904433c6.21475421 0 11.2586127 5.03665298 11.2586127 11.2586127v15.0081811c0 6.21835696-5.04385849 11.2586127-11.2586127 11.2586127h-11.25861271v-7.50634226z" fill="#a8abb3" fill-rule="nonzero"/>
  <g fill="#252d40">
    <path d="M143.55597636 167.35242481h-41.24795421l-36.74811188 29.41470191c-.51069068.4017073-1.13306679.61156784-1.75994634.61156784-.41251557 0-.83313734-.09367165-1.21953293-.28101497-.9763469-.46925898-1.59512025-1.44830794-1.59512025-2.5336382V44.45340849c0-5.69325528 4.62683948-10.32099545 10.32009475-10.32099545h97.56713774c5.69325527 0 10.32099544 4.62774017 10.32099544 10.32099544v34.71795884h72.24967016c5.68965252 0 10.32099545 4.62683948 10.32099545 10.32009476V232.0966534c0 1.08082682-.61967405 2.06437923-1.59512025 2.5336382-.38639559.18734332-.80701736.28101498-1.21953293.28101498-.62687956 0-1.25015636-.20986054-1.75994634-.6151706l-36.75261533-29.41109915h-66.56091833c-5.69235459 0-10.32009475-4.63134292-10.32009475-10.32099544V167.3524248zm35.63756232-82.55175113h72.24967016c2.58587817 0 4.6916891 2.10130747 4.6916891 4.6907884v136.74710996l-32.950807-26.36767097c-.49898171-.4017073-1.12135782-.6151706-1.75994633-.6151706h-67.5480735c-2.58948092 0-4.6907884-2.10220816-4.6907884-4.69168908V167.3524248h19.68726053c5.69325527 0 10.32099544-4.63134292 10.32099544-10.32099544v-72.2307557zM71.3054055 39.7617194c-2.58948092 0-4.6907884 2.10220816-4.6907884 4.69168908v144.2561543l32.94630355-26.37127372c.49898171-.4017073 1.12225851-.6151706 1.75994633-.6151706h67.55167626c2.58587816 0 4.69168909-2.10581092 4.69168909-4.69168909V44.45340848c0-2.58948092-2.10581093-4.69168908-4.6916891-4.69168908H71.3054055z"/>
    <path d="M211.10404985 118.5684056v-8.44035677c0-1.55368856 1.26096463-2.81465318 2.81465318-2.81465318 1.55368855 0 2.81465318 1.26096462 2.81465318 2.81465318v8.44035677h23.45574337c1.55368855 0 2.81465318 1.26096463 2.81465318 2.81465318 0 1.55368855-1.26096463 2.81465318-2.81465318 2.81465318h-3.70453392c-1.94638897 4.79616901-7.8648165 18.07682856-18.97121276 32.75355609 6.0427226 7.53516431 13.5058318 15.32252155 22.51362266 22.24882009 1.23124188.94932622 1.46361965 2.71737876.51789618 3.94771996-.55482443.72505466-1.39156453 1.09974129-2.23641083 1.09974129-.59625613 0-1.20061846-.19094607-1.71130913-.58544786-8.99698259-6.91729165-16.5078283-14.64880617-22.65052739-22.17676497-4.99522129 6.10577084-10.88122401 12.32322713-17.745375 18.16509609-.52870446.4503445-1.17810124.671914-1.82389527.671914-.7953084 0-1.58701404-.33775838-2.14273917-.99075791-1.00967238-1.18260468-.86736352-2.9614655.31524116-3.97023719 6.92359647-5.89140686 12.8330171-12.23856236 17.80482048-18.4506145-7.12354943-9.4311147-12.07013351-18.19932228-15.08744172-24.20151389-.69803399-1.38796177-.1396068-3.08125712 1.24925567-3.77929111 1.39967073-.7052395 3.07765437-.13510335 3.77929111 1.25015636 2.77682424 5.52572711 7.2487452 13.48241389 13.61931862 22.09840502 8.72767658-11.82694748 14.02012524-22.6090957 16.43577318-28.08078147h-42.70256697c-1.55368855 0-2.81465318-1.26096463-2.81465318-2.81465318 0-1.55368855 1.26096463-2.81465318 2.81465318-2.81465318h23.45574337zm-86.32383674 19.706175V63.21746277c0-1.55368855 1.26096463-2.81465318 2.81465318-2.81465318H138.853479c7.7576345 0 14.07326589 6.31202863 14.07326589 14.07326589v15.00818108c0 3.35686797-1.18260468 6.44442992-3.15331225 8.86638268 6.11387704 1.52936995 10.65965451 7.07040878 10.65965451 13.6544455v15.01088315c0 7.7576345-6.31653207 14.07326589-14.07326588 14.07326589h-18.76495498c-1.55368855 0-2.81465318-1.26096463-2.81465318-2.81465318zm-44.98221087-.5584272L94.80978608 62.6581349c.2630012-1.31320459 1.41498245-2.25892805 2.75881046-2.25892805 1.33932457 0 2.49580927.94572346 2.75790977 2.25892805l15.01178384 75.05801852c.3035322 1.52306513-.67911952 3.009202-2.20668809 3.3136349-.18374056.03692824-.37198456.05584271-.55572512.05584271-1.31320459 0-2.48770307-.92320624-2.75430702-2.26253081l-4.80067245-23.99975954H90.11539493l-4.80067246 23.99975954c-.3035322 1.52306513-1.79327183 2.49580926-3.3136349 2.2066881-1.52306512-.3044329-2.51022028-1.79056977-2.20308533-3.3136349zm50.61151723-2.25622598h15.9503018c4.65295946 0 8.44395953-3.79009938 8.44395953-8.44395953v-15.01088315c0-4.6574629-3.79100007-8.44395953-8.44395953-8.44395953h-15.9503018v31.89880221zm-39.16826327-26.2658931h12.65378l-6.32643966-31.6294962-6.32734034 31.6294962zm39.16826327-11.26581823h8.44395953c4.65386015 0 8.44395953-3.79100007 8.44395953-8.44395953V74.47607548c0-4.6574629-3.79009938-8.44395953-8.44395953-8.44395953h-8.44395953v31.89610014zM135.08229409 216.162564H94.9304784c-1.55368855 0-2.81465318-1.26096462-2.81465318-2.81465317 0-1.55368855 1.26096463-2.81465318 2.81465318-2.81465318h40.15181568c1.55368855 0 2.81465317 1.26096463 2.81465317 2.81465318 0 1.55368855-1.26096462 2.81465318-2.81465317 2.81465318zm-55.16359952 0h-8.63220354c-1.55368855 0-2.81465317-1.26096462-2.81465317-2.81465317 0-1.55368855 1.26096462-2.81465318 2.81465317-2.81465318h8.63220354c1.55368855 0 2.81465318 1.26096463 2.81465318 2.81465318 0 1.55368855-1.26096463 2.81465318-2.81465318 2.81465318zM270.20005762 47.26806167h-47.65725725c-1.55368856 0-2.81465318-1.26096462-2.81465318-2.81465318 0-1.55368855 1.26096462-2.81465317 2.81465318-2.81465317h47.65725725c1.55368855 0 2.81465317 1.26096462 2.81465317 2.81465317 0 1.55368856-1.26096462 2.81465318-2.81465317 2.81465318zm-62.6690411 0h-8.6349056c-1.55368855 0-2.81465318-1.26096462-2.81465318-2.81465318 0-1.55368855 1.26096463-2.81465317 2.81465318-2.81465317h8.6349056c1.55368856 0 2.81465318 1.26096462 2.81465318 2.81465317 0 1.55368856-1.26096462 2.81465318-2.81465318 2.81465318z" fill-rule="nonzero"/>
  </g>
</svg>
